<?xml version="1.0" encoding="utf-8"?>
<!DOCTYPE svg PUBLIC "-//W3C//DTD SVG 1.1//EN" "http://www.w3.org/Graphics/SVG/1.1/DTD/svg11.dtd">
<svg version="1.1" xmlns="http://www.w3.org/2000/svg" xmlns:xlink="http://www.w3.org/1999/xlink" style="display:none">
	<symbol id="computer-icon" viewBox="0 0 31.387 31.386">
		<path d="M26 27l3.7-15.8 -11.1-1.1 0.6-0.8 -2.1-2.6 0.9-0.7 1.5 1.9 -0.4 0.3 1.3 1.6 1.3-1.1 -1.3-1.6L20.1 7.3l-1.5-1.9 0.5-0.4L18.5 4.2 6.8 13.7l0.7 0.8 1.8-1.4 2.1 2.6 0.4-0.2 -1.3 6.7 0 0L0.2 23.8l13.6 4.9L26 27zM12.7 15.1l3.7-1.5 1.6-2.4 10.1 1.2 -3.2 13.3 -13.5-3.8L12.7 15.1zM10.5 26.7l-3.3-1.3 1.6-0.2 3.8 1.3L10.5 26.7z"/><polygon points="26.8 27.6 13.8 29.5 13.8 29.5 0 24.4 0 25.2 13.7 30.4 27.5 28.2 31.4 12.2 30.5 11.6 "/><path d="M5.3 20.4c0.3-0.1 0.6-0.2 0.8-0.3l0.4 0.3 0.3-0.3 2.1 1.6 0.6-0.8 -2.1-1.6 0.2-0.3 -0.4-0.3c0.1-0.4 0.1-0.8 0-1.3 -0.3-1.4-1.7-2.2-3.1-1.9 -1.4 0.3-2.2 1.7-1.9 3.1C2.6 19.9 4 20.7 5.3 20.4zM4.4 16.4c0.8-0.2 1.6 0.3 1.8 1.1 0.2 0.8-0.3 1.6-1.1 1.8C4.3 19.6 3.5 19.1 3.3 18.3 3.1 17.5 3.6 16.6 4.4 16.4zM22.2 4.6c0.4 0.5 1 0.8 1.6 0.8 0 0 0 0 0 0l0 0h0c0.7 0 1.2-0.3 1.6-0.8 0 0 0.1-0.1 0.1-0.1 0.2-0.3 0.4-0.8 0.4-1.2s-0.1-0.9-0.4-1.2c0 0-0.1-0.1-0.1-0.1 -0.4-0.5-1-0.8-1.6-0.8h0l0 0c0 0 0 0 0 0 -0.6 0-1.2 0.3-1.6 0.8 0 0-0.1 0.1-0.1 0.1 -0.2 0.3-0.4 0.8-0.4 1.2s0.1 0.9 0.4 1.2C22.1 4.5 22.1 4.5 22.2 4.6zM24.4 5.1c0.2-0.2 0.4-0.5 0.5-0.8 0.2 0.1 0.3 0.1 0.4 0.2C25.1 4.8 24.8 5 24.4 5.1zM25.4 4.4c-0.1-0.1-0.3-0.2-0.5-0.2 0.1-0.2 0.1-0.5 0.1-0.7h0.7C25.7 3.7 25.6 4.1 25.4 4.4zM25.8 3.2h-0.7c0-0.3 0-0.6-0.1-0.9 0.2-0.1 0.3-0.1 0.5-0.2C25.6 2.4 25.8 2.8 25.8 3.2zM25.3 2c-0.1 0.1-0.3 0.1-0.4 0.2 -0.1-0.3-0.3-0.6-0.5-0.8C24.8 1.5 25.1 1.7 25.3 2zM23.9 1.3c0.4 0.1 0.7 0.4 0.8 0.9 -0.2 0.1-0.5 0.1-0.8 0.1V1.3zM23.9 2.5c0.3 0 0.6-0.1 0.9-0.1 0.1 0.2 0.1 0.5 0.1 0.8H23.9V2.5zM23.9 3.4h1c0 0.2 0 0.5-0.1 0.7 -0.3-0.1-0.6-0.1-0.9-0.1V3.4H23.9zM23.9 4.1c0.3 0 0.6 0.1 0.8 0.1C24.6 4.8 24.3 5.1 23.9 5.2V4.1zM22.3 4.5c0.1-0.1 0.3-0.1 0.4-0.2 0.1 0.3 0.3 0.6 0.5 0.8C22.9 5 22.6 4.8 22.3 4.5zM23.7 5.2c-0.4 0-0.7-0.4-0.8-0.9 0.3-0.1 0.5-0.1 0.8-0.1V5.2zM23.7 3.9c-0.3 0-0.6 0.1-0.9 0.1 -0.1-0.2-0.1-0.4-0.1-0.7h1V3.9L23.7 3.9zM23.7 3.2h-1c0-0.3 0-0.6 0.1-0.8 0.3 0.1 0.6 0.1 0.9 0.1V3.2zM23.7 1.3v1.1c-0.3 0-0.6-0.1-0.8-0.1C23.1 1.7 23.4 1.3 23.7 1.3zM23.2 1.4c-0.2 0.2-0.4 0.5-0.5 0.8 -0.1-0.1-0.3-0.1-0.4-0.2C22.6 1.7 22.9 1.5 23.2 1.4zM22.2 2.1c0.1 0.1 0.3 0.2 0.5 0.2 -0.1 0.3-0.1 0.6-0.1 0.9h-0.7C21.9 2.8 22 2.4 22.2 2.1zM22.6 3.4c0 0.3 0.1 0.5 0.1 0.7 -0.2 0.1-0.3 0.1-0.5 0.2 -0.2-0.3-0.3-0.6-0.3-1L22.6 3.4 22.6 3.4zM25.8 7.6l-0.3 0.6 -0.8 0.3 0.4 1 0.8-0.3 0.6 0.2 2.7-1.1 0.2 0.6 0.8-0.3L30 7.9l1.3-0.5 -0.7-1.7 -1.3 0.5 -0.3-0.7 -0.8 0.3 0.3 0.7L25.8 7.6zM29.1 8.1l-2.7 1.1L25.9 8.9 25.2 9.2l-0.2-0.6 0.7-0.3 0.3-0.5 2.7-1.1L29.1 8.1zM12.4 3c0.6-0.1 0.9-0.6 0.8-1.2 -0.1-0.5-0.6-0.9-1.2-0.8 -0.5 0.1-0.9 0.6-0.8 1.2C11.3 2.7 11.8 3.1 12.4 3zM12.1 1.5c0.3 0 0.5 0.1 0.6 0.4 0 0.3-0.1 0.5-0.4 0.6s-0.5-0.1-0.6-0.4C11.7 1.8 11.9 1.5 12.1 1.5zM12.4 3.2c-0.6 0.1-0.9 0.6-0.8 1.2 0.1 0.6 0.6 0.9 1.2 0.8 0.6-0.1 0.9-0.6 0.8-1.2C13.5 3.5 13 3.2 12.4 3.2zM13.1 4.2c0 0.3-0.1 0.5-0.4 0.6 -0.3 0-0.5-0.1-0.6-0.4 0-0.3 0.1-0.5 0.4-0.6C12.8 3.7 13 3.9 13.1 4.2zM10.6 3.4L9.1 5.5l1.2-0.2 1.5-2.1L9.7 1.7l-1.2 0.1 2.1 1.6H10.6zM11 3c0.1 0 0.3 0.1 0.3 0.2 0 0.1-0.1 0.3-0.2 0.3 -0.1 0-0.3-0.1-0.3-0.2C10.8 3.2 10.9 3 11 3zM25.1 14.4l-4.7-0.7 0.3 1.3 0.7 0.1 0.3 1.4 -0.6 0.3 0.3 1.4 4-2.5L25.1 14.4zM22.5 16.1l-0.2-0.8 1.4 0.1 0 0L22.5 16.1zM18.3 20.3c-0.1-0.1-0.1-0.1-0.2-0.2 -0.1 0-0.1-0.1-0.2-0.1 0.1-0.1 0.2-0.2 0.3-0.3 0.1-0.1 0.1-0.2 0.1-0.4 0-0.1 0-0.2 0-0.3 0-0.1-0.1-0.2-0.2-0.3 -0.1-0.1-0.2-0.2-0.3-0.2 -0.1-0.1-0.3-0.1-0.6-0.1h-1.9v3.5h2c0.2 0 0.3 0 0.5-0.1 0.1 0 0.3-0.1 0.4-0.2 0.1-0.1 0.2-0.2 0.3-0.3 0.1-0.1 0.1-0.3 0.1-0.5 0-0.1 0-0.2-0.1-0.3C18.4 20.5 18.3 20.4 18.3 20.3zM16.3 19.3h0.6c0.1 0 0.2 0 0.3 0.1 0.1 0 0.1 0.1 0.1 0.2 0 0.1 0 0.2-0.1 0.2 -0.1 0-0.2 0.1-0.3 0.1h-0.6V19.3zM17.4 21c0 0-0.1 0.1-0.1 0.1s-0.1 0-0.1 0.1c-0.1 0-0.1 0-0.2 0h-0.6v-0.7h0.7c0.3 0 0.4 0.1 0.4 0.3C17.4 20.9 17.4 21 17.4 21zM3.3 9.7c0.2 0.2 0.5 0.4 0.7 0.6 0.3 0.1 0.5 0.2 0.8 0.3 0.3 0 0.6 0 0.9-0.1 0.3-0.1 0.6-0.3 0.8-0.5C6.7 9.7 6.9 9.5 7 9.3c0.1-0.2 0.2-0.5 0.2-0.7 0-0.2 0-0.5-0.1-0.7C7 7.6 6.9 7.4 6.8 7.2L5.8 8.1c0.1 0.1 0.1 0.2 0.1 0.3 0 0.1 0.1 0.2 0.1 0.3C6 8.7 6 8.8 5.9 8.9c0 0.1-0.1 0.2-0.2 0.2C5.6 9.2 5.5 9.3 5.4 9.3 5.2 9.3 5.1 9.3 5 9.3 4.9 9.2 4.7 9.2 4.6 9.1 4.5 9 4.4 8.9 4.3 8.8 4.2 8.7 4.1 8.6 4 8.4 4 8.3 3.9 8.2 3.9 8 3.9 7.9 3.9 7.8 3.9 7.7 3.9 7.5 4 7.4 4.1 7.3 4.2 7.2 4.3 7.2 4.4 7.2c0.1 0 0.2 0 0.3 0 0.1 0 0.2 0 0.2 0.1S5.1 7.3 5.1 7.3l1-0.9c-0.4-0.4-0.8-0.6-1.3-0.6 -0.4 0-0.9 0.2-1.4 0.6C3.2 6.7 3 6.9 2.8 7.2c-0.1 0.3-0.2 0.5-0.2 0.8C2.6 8.3 2.6 8.6 2.8 8.9 2.9 9.2 3 9.4 3.3 9.7z"/>
	</symbol>
	<symbol id="briefcase-icon" viewBox="0 0 50.2 50.2">
		<path d="M27.6 29.8v-1.1c0-1.4-1.1-2.5-2.5-2.5 -1.4 0-2.5 1.1-2.5 2.5v1.1c0 1.4 1.1 2.5 2.5 2.5C26.5 32.3 27.6 31.1 27.6 29.8zM29.3 31.1c-0.5 1.8-2.2 3.1-4.2 3.1 -2 0-3.6-1.3-4.2-3.1H4c-1.1 0-2.1-0.2-3-0.7v11.3c0 2.2 1.8 4 4 4h40.2c2.2 0 4-1.8 4-4V30.5c-0.9 0.4-1.9 0.7-3 0.7L29.3 31.1 29.3 31.1zM46.1 10.9h-9.6c-0.6-3.6-3.7-6.4-7.5-6.4h-7.7c-3.8 0-6.9 2.8-7.5 6.4h-9.6c-2.3 0-4.2 1.8-4.2 4v9.2c0 2.2 1.8 4 4 4h16.8c0.1-1.1 0.6-2.2 1.3-2.9 0 0 0.1 0 0.1-0.1 0.2-0.2 0.4-0.3 0.6-0.4 0.1 0 0.2-0.1 0.2-0.1 0.2-0.1 0.3-0.2 0.5-0.3 0.1-0.1 0.3-0.1 0.4-0.1 0.1 0 0.2-0.1 0.4-0.1C24.5 24 24.8 24 25.1 24c0.3 0 0.6 0 0.9 0.1 0.1 0 0.2 0.1 0.4 0.1 0.1 0 0.3 0.1 0.4 0.1 0.2 0.1 0.3 0.2 0.5 0.3 0.1 0 0.2 0.1 0.2 0.1 0.2 0.1 0.4 0.3 0.5 0.4 0 0 0.1 0 0.1 0.1 0.8 0.7 1.3 1.8 1.3 2.9h16.8c2.2 0 4-1.8 4-4v-9.2C50.2 12.7 48.4 10.9 46.1 10.9zM17.6 10.9c0.5-1.5 1.9-2.7 3.7-2.7h7.7c1.7 0 3.1 1.1 3.7 2.7H17.6z"/>
	</symbol>
	<symbol id="skills-icon" viewBox="0 0 232.7 232.7">
		<path d="M97.7 61.3h120c8.3 0 15-6.7 15-15s-6.7-15-15-15h-120c-8.3 0-15 6.7-15 15S89.4 61.3 97.7 61.3z"/><path d="M217.7 101.3h-120c-8.3 0-15 6.7-15 15s6.7 15 15 15h120c8.3 0 15-6.7 15-15S226 101.3 217.7 101.3z"/><path d="M217.7 171.3h-120c-8.3 0-15 6.7-15 15 0 8.3 6.7 15 15 15h120c8.3 0 15-6.7 15-15C232.7 178.1 226 171.3 217.7 171.3z"/><path d="M48.8 104.4l-10-1.5 -4.5-9.1c-1.3-2.6-3.9-4.2-6.7-4.2 -2.9 0-5.5 1.6-6.7 4.2l-4.5 9.1 -10 1.5c-2.8 0.4-5.2 2.4-6.1 5.1 -0.9 2.7-0.1 5.7 1.9 7.7l7.2 7 -1.7 9.9c-0.5 2.8 0.7 5.7 3 7.3 1.3 1 2.9 1.4 4.4 1.4 1.2 0 2.4-0.3 3.5-0.9l8.9-4.7 8.9 4.7c1.1 0.6 2.3 0.9 3.5 0.9 0 0 0 0 0 0 4.1 0 7.5-3.4 7.5-7.5 0-0.6-0.1-1.2-0.2-1.8l-1.6-9.4 7.2-7c2-2 2.8-5 1.9-7.7C54 106.8 51.6 104.8 48.8 104.4z"/><path d="M48.8 34.4l-10-1.5 -4.5-9.1c-1.3-2.6-3.9-4.2-6.7-4.2 -2.9 0-5.5 1.6-6.7 4.2l-4.5 9.1 -10 1.5c-2.8 0.4-5.2 2.4-6.1 5.1 -0.9 2.7-0.1 5.7 1.9 7.7l7.2 7 -1.7 9.9c-0.5 2.8 0.7 5.7 3 7.3 1.3 1 2.9 1.4 4.4 1.4 1.2 0 2.4-0.3 3.5-0.9l8.9-4.7 8.9 4.7c1.1 0.6 2.3 0.9 3.5 0.9 0 0 0 0 0 0 4.1 0 7.5-3.4 7.5-7.5 0-0.6-0.1-1.2-0.2-1.8l-1.6-9.4 7.2-7c2-2 2.8-5 1.9-7.7C54 36.8 51.6 34.8 48.8 34.4z"/><path d="M48.8 174.4l-10-1.5 -4.5-9.1c-1.3-2.6-3.9-4.2-6.7-4.2 -2.9 0-5.5 1.6-6.7 4.2l-4.5 9.1 -10 1.5c-2.8 0.4-5.2 2.4-6.1 5.1 -0.9 2.7-0.1 5.7 1.9 7.7l7.2 7 -1.7 9.9c-0.5 2.8 0.7 5.7 3 7.3 1.3 1 2.9 1.4 4.4 1.4 1.2 0 2.4-0.3 3.5-0.9l8.9-4.7 8.9 4.7c1.1 0.6 2.3 0.9 3.5 0.9 0 0 0 0 0 0 4.1 0 7.5-3.4 7.5-7.5 0-0.6-0.1-1.2-0.2-1.8l-1.6-9.4 7.2-7c2-2 2.8-5 1.9-7.7C54 176.8 51.6 174.8 48.8 174.4z"/>
	</symbol>
</svg>
