<?xml version="1.0" encoding="utf-8"?>
<!-- Generator: Adobe Illustrator 19.0.0, SVG Export Plug-In . SVG Version: 6.00 Build 0)  -->
<svg version="1.1" id="Layer_1" xmlns="http://www.w3.org/2000/svg" xmlns:xlink="http://www.w3.org/1999/xlink" x="0px" y="0px"
	 viewBox="0 0 512 512" style="enable-background:new 0 0 512 512;" xml:space="preserve">
<style type="text/css">
	.st0{fill:#EDEDED;}
	.st1{display:none;}
	.st2{display:inline;fill:#283E4A;}
	.st3{fill:#283E4A;}
	.st4{display:inline;}
	.st5{display:none;fill:#283E4A;}
	.st6{fill:none;stroke:#283E4A;stroke-width:2;stroke-miterlimit:10;}
	.st7{display:none;fill:none;stroke:#283E4A;stroke-miterlimit:10;}
</style>
<circle id="XMLID_6_" class="st0" cx="256" cy="256" r="256"/>
<g id="JOB" class="st1">
	<path id="XMLID_9_" class="st2" d="M405.6,156.3h-84.3v-14.7c0-14.9-12.1-27.1-27.1-27.1h-68.5c-14.9,0-27.1,12.1-27.1,27.1v14.7
		h-84.3c-13,0-23.6,10.6-23.6,23.6v165.8c0,13,10.6,23.6,23.6,23.6h291.2c13,0,23.6-10.6,23.6-23.6V179.9
		C429.2,166.9,418.6,156.3,405.6,156.3z M212.1,141.6c0-7.5,6.1-13.6,13.6-13.6h68.5c7.5,0,13.6,6.1,13.6,13.6v14.7h-95.7V141.6z
		 M415.7,345.7c0,5.6-4.5,10.1-10.1,10.1H114.4c-5.6,0-10.1-4.5-10.1-10.1V215.6l103.5,50.2c2.1,12.8,13.2,22.6,26.6,22.6h51.2
		c13.4,0,24.5-9.8,26.6-22.6l64.6-31.4c3.3-1.6,4.7-5.7,3.1-9c-1.6-3.4-5.7-4.7-9-3.1l-60.3,29.2c-3.9-10-13.7-17.1-25.1-17.1h-51.2
		c-11.4,0-21.1,7.1-25.1,17.1l-105-50.9v-20.8c0-5.6,4.5-10.1,10.1-10.1h291.2c5.6,0,10.1,4.5,10.1,10.1V345.7z M220.9,261.5
		c0-7.4,6-13.5,13.5-13.5h51.2c7.4,0,13.5,6,13.5,13.5s-6,13.5-13.5,13.5h-51.2C226.9,274.9,220.9,268.9,220.9,261.5z"/>
	<path id="XMLID_2_" class="st2" d="M397.3,209.5l-4.1,2c-3.4,1.6-4.7,5.7-3.1,9c1.2,2.4,3.6,3.8,6.1,3.8c1,0,2-0.2,2.9-0.7l4.1-2
		c3.4-1.6,4.7-5.7,3.1-9C404.7,209.3,400.7,207.9,397.3,209.5z"/>
</g>
<g id="INTERNSHIPS" class="st1">
	<polyline id="XMLID_13_" class="st3" points="268.5,291 275.1,436.9 255.1,455 235.4,437.2 241.8,291 	"/>
	<path id="XMLID_20_" class="st2" d="M104.9,390.4c4.2,0,7.7-3.5,7.7-7.7v-42.6c0-6.8,3-13.1,8.1-17.3c37.9-31.2,79-51.9,86.8-55.7
		c3.6-1.8,5.8-5.3,5.8-9.4v-59.9c0-2.5-1.3-5-3.4-6.3c-5.7-3.8-9.1-10.1-9.1-16.9v-62c0-26.6,21.6-48.2,48.2-48.2h13.3
		c26.6,0,48.2,21.6,48.2,48.2v62.1c0,6.8-3.4,13.1-9.1,16.9c-2.1,1.4-3.4,3.8-3.4,6.3v59.9c0,4.1,2.3,7.6,5.8,9.4
		c7.9,3.8,49,24.6,86.8,55.7c5.2,4.2,8.1,10.6,8.1,17.3v42.6c0,4.2,3.5,7.7,7.7,7.7c4.2,0,7.7-3.5,7.7-7.7v-42.6
		c0-11.3-5-22-13.8-29.1c-35.9-29.5-74.6-50-87.1-56.2v-53c7.9-6.8,12.5-16.6,12.5-27.1v-62.1c0-35-28.5-63.6-63.6-63.6h-13.3
		c-35.1,0-63.6,28.5-63.6,63.6v62.1c0,10.5,4.6,20.4,12.5,27.1v53c-12.5,6.2-51.2,26.8-87.1,56.2c-8.7,7.2-13.8,17.8-13.8,29.1v42.6
		C97.3,386.9,100.6,390.4,104.9,390.4L104.9,390.4z M104.9,390.4"/>
	<path id="XMLID_16_" class="st2" d="M276.3,267.3c-4.2,0-7.7,3.5-7.7,7.7c0,3.8-1.6,7.2-4.2,9.5c-0.5,0.3-1,0.7-1.4,1.2
		c-2,1.4-4.6,2.2-7.3,2.2c-7.1,0-12.9-5.8-12.9-12.9c0-4.2-3.5-7.7-7.7-7.7c-4.2,0-7.7,3.5-7.7,7.7c0,6.8,2.4,13,6.4,17.9l-6.3,144
		c-0.1,2.3,0.8,4.5,2.5,6l19.7,17.8c1.4,1.4,3.3,1.9,5.2,1.9c1.9,0,3.7-0.7,5.1-1.9l20-18.1c1.7-1.5,2.6-3.7,2.5-6l-6.4-142.3
		c4.7-5.1,7.7-11.8,7.7-19.3C284,270.8,280.5,267.3,276.3,267.3L276.3,267.3z M255.1,444.7L243.2,434l5.7-131.7
		c2.2,0.6,4.5,0.8,6.8,0.8c1.9,0,3.8-0.2,5.7-0.6l5.9,131L255.1,444.7z M255.1,444.7"/>
</g>
<g id="USER_x5F_PROFILES" class="st1">
	<path id="XMLID_32_" class="st2" d="M103,270.4c0.3,0,0.5,0,0.8,0c5.8-0.2,11.4-1.4,16.6-3.4l38.3,55.2c0.9,1.3,2.1,2.4,3.6,3
		c3.7,1.5,7.7,0.2,9.8-2.9l38.4-55.4c5.2,2,10.8,3.2,16.6,3.4c0.3,0,0.5,0,0.8,0c9.2,0,17.9,4.5,23.2,12c1.6,2.2,4.1,3.4,6.6,3.4
		c2,0,4-0.7,5.6-2.3c2.9-2.8,3.2-7.4,0.8-10.7c-8-11.2-20.9-18.1-34.6-18.6c-0.3,0-0.6-0.1-0.9-0.1c-17.6,0-32.1-13.3-34.1-30.3
		c5.1-3.7,9.7-8.4,13.9-14c8.4-11.3,13.8-25.5,15.8-40.8c0.6-0.7,1.1-1.5,1.5-2.3c3.5-8.4,5.3-17.4,5.3-26.8
		c0-35.9-27.1-65.1-60.5-65.1c-8.6,0-17,2-24.9,5.8c-3,0.2-5.9,0.8-8.6,1.6c-27.9,8.1-43.6,41.7-35.1,75.1c0.9,3.4,1.9,6.7,3.2,9.8
		c0.4,0.9,0.8,1.6,1.4,2.3c3.2,23.6,14.4,43.2,29.6,54.3c-2,17.1-16.5,30.4-34.1,30.4c-0.3,0-0.5,0-0.8,0c-23.8,0.8-43,20.5-43,44.5
		v48c0,4.5,3.6,8.1,8.1,8.1h142.9c4.1,0,7.7-2.9,8.3-6.9c0.7-5-3.1-9.3-8-9.3H74.6v-39.9C74.6,283.1,87.4,270.4,103,270.4z
		 M141.6,97.9c2.1-0.6,4.4-1,6.7-1.1c1.2-0.1,2.4-0.4,3.4-0.9c6-3.2,12.4-4.8,18.9-4.8c23.9,0,43.4,21,44.2,47.2
		c-4.9-3.7-10.9-5.9-17.5-5.9H155c-2.1,0-4.1-0.7-5.8-1.9c-1.4-1.1-2.5-2.5-3.2-4.2c-1.5-3.8-5.3-6.2-9.4-5.9
		c-4.1,0.3-7.6,3.1-8.6,7.1c-2.1,7.9-5.9,15.3-11.2,21.6C112.6,125.7,123.2,103.2,141.6,97.9z M122.6,166.5
		c7.1-6.5,12.8-14.4,16.8-23c0,0,0,0,0,0c4.5,3.4,9.9,5.2,15.6,5.2h42.4c5.1,0,9.5,3,11.6,7.3c-0.1,16.8-4.9,32.6-13.5,44.3
		c-8.2,11.1-18.8,17.2-30,17.2c-10.3,0-20.4-5.3-28.3-15C129.5,193,124.4,180.4,122.6,166.5z M165.4,233.6c4.8,0,9.5-0.7,14.1-2.1
		c2.6,10.8,8.6,20.4,16.9,27.3l-31,44.8l-31-44.8c8.3-6.9,14.4-16.4,16.9-27.3C155.9,232.9,160.6,233.6,165.4,233.6z"/>
	<path id="XMLID_8_" class="st2" d="M404.4,299.2c-0.3,0-0.5,0-0.8,0c-17.6,0-32.1-13.3-34.1-30.4c9.9-7.2,18.1-18.1,23.5-31.2
		c0.8,2.5,2.7,4.6,5.3,5.4c0.8,0.2,1.6,0.4,2.4,0.4c2.5,0,4.8-1.1,6.4-3.1c11.3-14.5,17.2-33.4,16.5-53.2
		c-0.6-19.4-7.4-37.6-19.2-51.3c-12.1-14-28-21.8-44.8-22c-0.9,0-3.1,0-3.5,0.1c-8.7-3.9-17.8-5.8-27.2-5.5
		c-19.5,0.6-37.4,10.3-50.4,27.3c-12.7,16.5-19.3,38.1-18.5,60.7c0.1,3.8,0.4,7.4,0.9,10.7c1.3,9.6,4,18.8,7.8,27.3
		c0.8,1.7,2.1,3.1,3.7,4c4,2,8.5,0.5,10.6-3c0.7-1.1,1.5-2.4,2.4-3.7c3.6,11,9.1,20.8,16.1,28.6c3,3.3,6.2,6.2,9.6,8.7
		c-2,17.1-16.5,30.4-34.1,30.4c-0.3,0-0.5,0-0.8,0c-23.8,0.8-43,20.5-43,44.5v48c0,4.5,3.6,8.1,8.1,8.1h197.8c4.5,0,8.1-3.6,8.1-8.1
		v-48C447.4,319.7,428.3,300.1,404.4,299.2z M278.8,214.3c-0.8-3.1-1.4-6.3-1.9-9.6c-0.4-2.8-0.7-5.7-0.8-9
		c-0.6-18.9,4.8-36.7,15.2-50.3c10-13.1,23.6-20.5,38.1-21c0.5,0,10.9-0.6,21.6,4.8c1.2,0.6,2.6,0.9,3.9,0.8c0.2,0,4.3-0.2,4.4-0.2
		c12.2,0.1,23.8,5.9,32.8,16.3c9.4,10.9,14.8,25.5,15.3,41.3c0.3,8.5-0.9,16.9-3.5,24.5c-0.8-2-1.6-4-2.6-6
		c-7.8-16.6-20.9-29.5-36.9-36.2c-1-0.4-2.1-0.7-3.2-0.7c-3.6,0-6.5,2.2-7.7,5.3c-1.1,2.9-2.4,5.8-3.9,8.4
		c-4.2,7.6-12.8,12.1-22.3,11.8c-1.4,0-2.9-0.1-4.3,0c-7,0.2-13.8,1.6-20.3,4C296.4,200.9,285.6,207,278.8,214.3z M298.8,218.7
		c3.1-2.1,6.3-3.8,9.8-5c4.8-1.8,9.9-2.8,15.2-3c1.1,0,2.2,0,3.2,0c15.6,0.5,29.8-7.1,37-20.1c0.4-0.8,0.9-1.6,1.3-2.4
		c7.4,4.6,13.7,11,18.5,18.8c0,0.2-0.1,0.5-0.1,0.7c-1.2,15.4-6.5,29.5-14.9,39.7c-7.9,9.7-18,15-28.3,15
		C321.3,262.4,304.3,244.3,298.8,218.7z M340.4,278.7c4.9,0,9.6-0.8,14.1-2.2c3.3,13.8,12.2,25.4,24.2,32.3
		c-4.7,16.9-20.2,29.1-38.2,29.1c-18,0-33.6-12.2-38.2-29.1c12-6.9,20.9-18.5,24.2-32.3C330.9,277.9,335.6,278.7,340.4,278.7z
		 M431.2,383.6H249.6v-39.9c0-15.6,12.8-28.2,28.4-28.4c0.2,0,0.5,0,0.7,0c2.8-0.1,5.5-0.4,8.2-0.9c7,23.1,28.6,39.6,53.4,39.6
		s46.4-16.5,53.4-39.6c2.7,0.5,5.4,0.8,8.2,0.9c0.3,0,0.5,0,0.8,0c15.6,0,28.4,12.7,28.4,28.4V383.6z"/>
</g>
<g id="NETWORK" class="st1">
	<path id="XMLID_75_" class="st2" d="M257.4,110.1c-5.1,0-10.3-1.5-14.7-4.4c-7.1-4.6-11.7-12.6-12.3-21.3v0l-1.4-22
		c-0.5-7.8,2.3-15.6,7.6-21.3s12.9-9,20.8-9c7.9,0,15.4,3.3,20.8,9c5.4,5.7,8.2,13.5,7.6,21.3l-1.4,22c-0.6,8.7-5.2,16.6-12.3,21.3
		C267.7,108.7,262.6,110.1,257.4,110.1z M248.3,83.4c0.2,3.1,1.8,5.9,4.2,7.4c3,2,7,2,10,0c2.4-1.6,4-4.3,4.2-7.4l1.4-22
		c0.2-3-0.8-5.8-2.8-7.9c-2-2.2-4.8-3.4-7.7-3.4c-3,0-5.7,1.2-7.7,3.4c-2,2.2-3,5-2.8,7.9L248.3,83.4z"/>
	<path id="XMLID_72_" class="st2" d="M319.4,173.2H195.5c-2.7,0-5.2-1.2-6.9-3.2c-1.7-2-2.4-4.7-1.9-7.3l2.5-13.7
		c3.3-18,17.6-32.4,35.6-35.8c2.7-0.5,5.5-0.8,8.3-0.8h7.5c2.4,0,4.6,0.9,6.3,2.6c2.8,2.8,6.6,4.4,10.6,4.4s7.8-1.6,10.6-4.4
		c1.7-1.7,4-2.6,6.3-2.6h7.5c2.8,0,5.5,0.3,8.3,0.8c18,3.4,32.3,17.8,35.6,35.8l0,0l2.5,13.7c0.5,2.6-0.2,5.3-1.9,7.3
		C324.6,172.1,322,173.2,319.4,173.2z M206.2,155.3h102.5l-0.6-3.2c-2-10.8-10.5-19.4-21.3-21.4c-1.6-0.3-3.3-0.5-4.9-0.5h-4.1
		c-5.8,4.6-12.9,7-20.3,7c-7.5,0-14.6-2.5-20.3-7H233c-1.7,0-3.3,0.2-4.9,0.5c-10.8,2-19.3,10.6-21.3,21.4L206.2,155.3z"/>
	<path id="XMLID_69_" class="st2" d="M257.4,417.5c-5.1,0-10.3-1.5-14.7-4.4c-7.1-4.6-11.7-12.6-12.3-21.3l0,0l-1.4-22
		c-0.5-7.8,2.3-15.6,7.6-21.3c5.4-5.7,12.9-9,20.8-9c7.9,0,15.4,3.3,20.8,9c5.4,5.7,8.2,13.5,7.6,21.3l-1.4,22
		c-0.6,8.7-5.2,16.6-12.3,21.3C267.7,416,262.6,417.5,257.4,417.5z M248.3,390.7c0.2,3.1,1.8,5.9,4.2,7.4c3,2,7,2,10,0
		c2.4-1.6,4-4.3,4.2-7.4l1.4-22c0.2-3-0.8-5.8-2.8-7.9c-2-2.2-4.8-3.4-7.7-3.4c-3,0-5.7,1.2-7.7,3.4c-2,2.2-3,5-2.8,7.9L248.3,390.7
		z"/>
	<path id="XMLID_66_" class="st2" d="M319.4,480.6H195.5c-2.7,0-5.2-1.2-6.9-3.2c-1.7-2-2.4-4.7-1.9-7.3l2.5-13.7
		c3.3-18,17.6-32.4,35.6-35.8c2.7-0.5,5.5-0.8,8.3-0.8h7.5c2.4,0,4.6,0.9,6.3,2.6c5.9,5.9,15.4,5.9,21.3,0c1.7-1.7,4-2.6,6.3-2.6
		h7.5c2.8,0,5.5,0.3,8.3,0.8c18,3.4,32.3,17.8,35.6,35.8l0,0l2.5,13.7c0.5,2.6-0.2,5.3-1.9,7.3C324.6,479.4,322,480.6,319.4,480.6z
		 M206.2,462.7h102.5l-0.6-3.2c-2-10.8-10.5-19.4-21.3-21.4c-1.6-0.3-3.3-0.5-4.9-0.5h-4.1c-11.9,9.4-28.8,9.4-40.7,0H233
		c-1.7,0-3.3,0.2-5,0.5c-10.8,2-19.3,10.6-21.3,21.4L206.2,462.7z"/>
	<path id="XMLID_63_" class="st2" d="M103.8,263.8c-5.1,0-10.3-1.5-14.7-4.4c-7.1-4.6-11.7-12.6-12.3-21.3l-1.4-22
		c-0.5-7.8,2.3-15.6,7.6-21.3c5.4-5.7,13-9,20.8-9s15.4,3.3,20.8,9c5.4,5.7,8.2,13.5,7.6,21.3l-1.4,22c-0.6,8.7-5.2,16.6-12.3,21.3
		C114,262.4,108.9,263.8,103.8,263.8z M103.8,203.7c-3,0-5.7,1.2-7.7,3.4c-2,2.2-3,5-2.8,7.9l1.4,22l0,0c0.2,3.1,1.8,5.9,4.2,7.4
		c3,2,7,2,10,0c2.4-1.6,4-4.3,4.2-7.4l1.4-22c0.2-3-0.8-5.8-2.8-7.9C109.5,204.9,106.7,203.7,103.8,203.7z"/>
	<path id="XMLID_60_" class="st2" d="M165.7,326.9H41.8c-2.7,0-5.2-1.2-6.9-3.2c-1.7-2-2.4-4.7-1.9-7.3l2.5-13.7
		c3.3-18,17.6-32.4,35.6-35.8c2.7-0.5,5.5-0.8,8.3-0.8h7.5c2.4,0,4.6,0.9,6.3,2.6c5.9,5.9,15.4,5.9,21.3,0c1.7-1.7,4-2.6,6.3-2.6
		h7.5c2.8,0,5.5,0.3,8.3,0.8c18,3.4,32.3,17.8,35.6,35.8l0,0l2.5,13.7c0.5,2.6-0.2,5.3-1.9,7.3C170.9,325.7,168.4,326.9,165.7,326.9
		z M52.5,309H155l-0.6-3.2c-2-10.8-10.5-19.4-21.3-21.4c-1.6-0.3-3.3-0.5-4.9-0.5h-4.1c-5.8,4.6-12.9,7-20.3,7s-14.6-2.5-20.3-7
		h-4.1c-1.7,0-3.3,0.2-4.9,0.5c-10.8,2-19.3,10.6-21.3,21.4L52.5,309z"/>
	<path id="XMLID_57_" class="st2" d="M411.1,263.8c-5.1,0-10.3-1.5-14.7-4.4c-7.1-4.6-11.7-12.6-12.3-21.3l-1.4-22
		c-0.5-7.8,2.3-15.6,7.6-21.3c5.4-5.7,12.9-9,20.8-9c7.9,0,15.4,3.3,20.8,9c5.4,5.7,8.2,13.5,7.6,21.3l-1.4,22
		c-0.6,8.7-5.2,16.6-12.3,21.3C421.4,262.4,416.2,263.8,411.1,263.8z M411.1,203.7c-3,0-5.7,1.2-7.7,3.4s-3,5-2.8,7.9l1.4,22l0,0
		c0.2,3.1,1.8,5.9,4.2,7.4c3,2,7,2,10,0c2.4-1.6,4-4.3,4.2-7.4l1.4-22c0.2-3-0.8-5.8-2.8-7.9C416.8,204.9,414.1,203.7,411.1,203.7z"
		/>
	<path id="XMLID_54_" class="st2" d="M473.1,326.9H349.1c-2.7,0-5.2-1.2-6.9-3.2c-1.7-2-2.4-4.7-1.9-7.3l2.5-13.7
		c3.3-18,17.6-32.4,35.6-35.8c2.7-0.5,5.5-0.8,8.3-0.8h7.5c2.4,0,4.6,0.9,6.3,2.6c5.9,5.9,15.4,5.9,21.3,0c1.7-1.7,4-2.6,6.3-2.6
		h7.5c2.8,0,5.5,0.3,8.3,0.8c18,3.4,32.3,17.8,35.6,35.8l0,0l2.5,13.7c0.5,2.6-0.2,5.3-1.9,7.3C478.2,325.7,475.7,326.9,473.1,326.9
		z M359.8,309h102.5l-0.6-3.2c-2-10.8-10.5-19.4-21.3-21.4c-1.6-0.3-3.3-0.5-4.9-0.5h-4.1c-5.8,4.6-12.9,7-20.3,7s-14.6-2.5-20.3-7
		h-4.1c-1.7,0-3.3,0.2-4.9,0.5c-10.8,2-19.3,10.6-21.3,21.4L359.8,309z"/>
	<path id="XMLID_30_" class="st2" d="M118,164.4c-1.8,0-3.6-0.5-5.2-1.7c-4-2.9-4.9-8.5-2.1-12.5c21.9-30.6,53.4-54,88.9-66
		c4.7-1.6,9.8,0.9,11.3,5.6s-0.9,9.8-5.6,11.3c-31.9,10.8-60.4,31.9-80.1,59.4C123.5,163.1,120.8,164.4,118,164.4z"/>
	<path id="XMLID_29_" class="st2" d="M397.1,164.4c-2.8,0-5.5-1.3-7.3-3.7c-13.9-19.4-32.2-35.8-53-47.4c-4.3-2.4-5.9-7.9-3.4-12.2
		c2.4-4.3,7.9-5.9,12.2-3.4c23.1,12.9,43.4,31.1,58.8,52.6c2.9,4,2,9.6-2.1,12.5C400.8,163.9,398.9,164.4,397.1,164.4z"/>
	<path id="XMLID_28_" class="st2" d="M317,103.3c-1,0-2.1-0.2-3.1-0.6c-1.4-0.5-2.8-1-4.2-1.5c-4.7-1.6-7.2-6.7-5.6-11.3
		c1.6-4.7,6.7-7.2,11.3-5.6c1.5,0.5,3.1,1.1,4.6,1.6c4.6,1.7,7,6.9,5.3,11.5C324.1,101,320.7,103.3,317,103.3z"/>
	<path id="XMLID_27_" class="st2" d="M202.5,419.6c-1,0-1.9-0.2-2.9-0.5c-35.4-12-67-35.4-88.9-66c-2.9-4-2-9.6,2.1-12.5
		c4-2.9,9.6-2,12.5,2.1c19.7,27.5,48.1,48.6,80.1,59.4c4.7,1.6,7.2,6.7,5.6,11.3C209.7,417.2,206.2,419.6,202.5,419.6z"/>
	<path id="XMLID_48_" class="st2" d="M312.6,419.6c-3.7,0-7.2-2.4-8.5-6.1c-1.6-4.7,0.9-9.8,5.6-11.3c31.9-10.8,60.4-31.9,80.1-59.4
		c2.9-4,8.5-4.9,12.5-2.1c4,2.9,4.9,8.5,2.1,12.5c-22.2,31-52.9,53.8-88.9,66C314.6,419.4,313.6,419.6,312.6,419.6z"/>
</g>
<g id="SETTINGS" class="st1">
	<path id="XMLID_64_" class="st2" d="M405.8,220h-31.1c-5,0-9.1-2.8-11-7.4c-1.9-4.6-0.9-9.5,2.6-13l22-22c3.2-3.2,5-7.5,5-12.1
		c0-4.6-1.8-8.9-5-12.1l-28-28c-6.5-6.5-17.7-6.5-24.2,0l-22,22c-3.5,3.5-8.4,4.5-13,2.6c-4.6-1.9-7.4-6-7.4-11V108
		c0-9.4-7.7-17.1-17.1-17.1h-39.6c-9.4,0-17.1,7.7-17.1,17.1v31.1c0,5-2.8,9.1-7.4,11c-4.6,1.9-9.5,0.9-13-2.6l-22-22
		c-6.5-6.5-17.7-6.5-24.2,0l-28,28c-3.2,3.2-5,7.5-5,12.1c0,4.6,1.8,8.9,5,12.1l22,22c3.5,3.5,4.5,8.4,2.6,13c-1.9,4.6-6,7.4-11,7.4
		H108c-9.4,0-17.1,7.7-17.1,17.1v39.6c0,9.4,7.7,17.1,17.1,17.1H139c5,0,9.1,2.8,11,7.4c1.9,4.6,0.9,9.5-2.6,13l-22,22
		c-3.2,3.2-5,7.5-5,12.1c0,4.6,1.8,8.9,5,12.1l28,28c6.5,6.5,17.7,6.5,24.2,0l22-22c3.5-3.5,8.4-4.5,13-2.6c4.6,1.9,7.4,6,7.4,11
		v31.1c0,9.4,7.7,17.1,17.1,17.1h39.6c9.4,0,17.1-7.7,17.1-17.1v-31.1c0-5,2.8-9.1,7.4-11c4.6-1.9,9.5-0.9,13,2.6l22,22
		c6.5,6.5,17.7,6.5,24.2,0l28-28c3.2-3.2,5-7.5,5-12.1c0-4.5-1.8-8.8-5-12.1l-22-22c-3.5-3.5-4.5-8.4-2.6-13c1.9-4.6,6-7.4,11-7.4
		h31.1c9.4,0,17.1-7.7,17.1-17.1v-39.6C422.9,227.7,415.2,220,405.8,220L405.8,220z M410.6,276.7c0,2.6-2.2,4.8-4.8,4.8h-31.1
		c-10,0-18.6,5.7-22.4,14.9c-3.8,9.2-1.8,19.3,5.3,26.4l21.9,22c1.9,1.9,1.9,4.9,0,6.8l-28,28c-1.9,1.9-4.9,1.9-6.8,0l-22-21.9
		c-7.1-7.1-17.2-9.1-26.4-5.3c-9.2,3.8-14.9,12.4-14.9,22.4v31.1c0,2.6-2.2,4.8-4.8,4.8h-39.6c-2.6,0-4.8-2.2-4.8-4.8v-31.1
		c0-10-5.7-18.6-14.9-22.4c-3.1-1.3-6.3-1.9-9.4-1.9c-6.2,0-12.3,2.5-17,7.1l-22,22c-1.9,1.9-4.9,1.9-6.8,0l-28-28
		c-1.9-1.9-1.9-4.9,0-6.8l22-21.9c7.1-7.1,9.1-17.2,5.2-26.4c-3.8-9.2-12.4-14.9-22.4-14.9H108c-2.6,0-4.8-2.2-4.8-4.8v-39.6
		c0-2.6,2.1-4.8,4.8-4.8H139c10,0,18.6-5.7,22.4-14.9c3.8-9.2,1.8-19.3-5.2-26.4l-22-21.9c-1.9-1.9-1.9-4.9,0-6.8l28-28
		c1.9-1.9,4.9-1.9,6.8,0l22,21.9c7.1,7.1,17.2,9.1,26.4,5.3c9.2-3.8,14.9-12.4,14.9-22.4V108c0-2.6,2.2-4.8,4.8-4.8h39.6
		c2.6,0,4.8,2.1,4.8,4.8v31.1c0,10,5.7,18.6,14.9,22.4c9.2,3.8,19.3,1.8,26.4-5.2l22-22c1.9-1.9,4.9-1.9,6.8,0l28,28
		c1.9,1.9,1.9,4.9,0,6.8L357.6,191c-7.1,7-9.1,17.2-5.3,26.4c3.8,9.2,12.4,14.9,22.4,14.9h31.1c2.6,0,4.8,2.1,4.8,4.8V276.7z
		 M410.6,276.7"/>
	<path id="XMLID_58_" class="st2" d="M256.9,201.6c-30.5,0-55.4,24.8-55.4,55.4c0,30.5,24.8,55.3,55.4,55.3
		c30.5,0,55.3-24.8,55.3-55.3C312.2,226.4,287.4,201.6,256.9,201.6L256.9,201.6z M256.9,299.9c-23.7,0-43.1-19.3-43.1-43
		c0-23.7,19.3-43.1,43.1-43.1c23.7,0,43,19.3,43,43.1C299.9,280.6,280.6,299.9,256.9,299.9L256.9,299.9z M256.9,299.9"/>
</g>
<g id="SKILLS" class="st1">
	<g id="XMLID_49_" class="st4">
		<path id="XMLID_109_" class="st3" d="M103.5,302.6h12.5v110.8h92.9V302.6h12.5v-133H103.5V302.6z M123.6,189.6h28.8v62.7h20.1
			v-62.7h28.8v92.8h-12.5v110.8H136V282.5h-12.5V189.6z M123.6,189.6"/>
		<path id="XMLID_105_" class="st3" d="M162.4,156.1c18.7,0,33.8-15.2,33.8-33.8c0-18.7-15.2-33.8-33.8-33.8
			c-18.7,0-33.8,15.2-33.8,33.8C128.5,140.9,143.7,156.1,162.4,156.1L162.4,156.1z M162.4,108.5c7.6,0,13.7,6.2,13.7,13.7
			c0,7.6-6.2,13.7-13.7,13.7c-7.6,0-13.7-6.2-13.7-13.7C148.6,114.7,154.8,108.5,162.4,108.5L162.4,108.5z M162.4,108.5"/>
		<path id="XMLID_101_" class="st3" d="M373.6,155.3c18.4,0,33.4-15,33.4-33.4c0-18.4-15-33.4-33.4-33.4c-18.4,0-33.4,15-33.4,33.4
			C340.2,140.3,355.2,155.3,373.6,155.3L373.6,155.3z M373.6,108.5c7.4,0,13.3,6,13.3,13.3c0,7.4-6,13.3-13.3,13.3
			c-7.4,0-13.3-6-13.3-13.3C360.3,114.5,366.3,108.5,373.6,108.5L373.6,108.5z M373.6,108.5"/>
		<path id="XMLID_97_" class="st3" d="M373.6,346.5c-18.4,0-33.4,15-33.4,33.4c0,18.4,15,33.4,33.4,33.4c18.4,0,33.4-15,33.4-33.4
			C407.1,361.5,392.1,346.5,373.6,346.5L373.6,346.5z M373.6,393.3c-7.4,0-13.3-6-13.3-13.3c0-7.4,6-13.3,13.3-13.3
			c7.4,0,13.3,6,13.3,13.3C387,387.3,381,393.3,373.6,393.3L373.6,393.3z M373.6,393.3"/>
		<path id="XMLID_93_" class="st3" d="M373.6,260.5c-18.4,0-33.4,15-33.4,33.4c0,18.4,15,33.4,33.4,33.4c18.4,0,33.4-15,33.4-33.4
			C407.1,275.5,392.1,260.5,373.6,260.5L373.6,260.5z M373.6,307.3c-7.4,0-13.3-6-13.3-13.3c0-7.4,6-13.3,13.3-13.3
			c7.4,0,13.3,6,13.3,13.3C387,301.3,381,307.3,373.6,307.3L373.6,307.3z M373.6,307.3"/>
		<path id="XMLID_89_" class="st3" d="M373.6,174.5c-18.4,0-33.4,15-33.4,33.4c0,18.4,15,33.4,33.4,33.4c18.4,0,33.4-15,33.4-33.4
			C407.1,189.5,392.1,174.5,373.6,174.5L373.6,174.5z M373.6,221.2c-7.4,0-13.3-6-13.3-13.3c0-7.4,6-13.3,13.3-13.3
			c7.4,0,13.3,6,13.3,13.3C387,215.2,381,221.2,373.6,221.2L373.6,221.2z M373.6,221.2"/>
		<path id="XMLID_59_" class="st3" d="M271.4,240.9h-26.6V261h26.6V390h46.7v-20.1h-26.6V304h26.6v-20.1h-26.6v-65.9h26.6v-20.1
			h-26.6v-65.9h26.6v-20.1h-46.7V240.9z M271.4,240.9"/>
	</g>
</g>
<path id="XMLID_100_" class="st5" d="M399.7,330.6H107c-6.1,0-11.3-4.7-11.6-10.7c-0.3-6.5,4.9-11.9,11.3-11.9h77.8
	c0,0,3.9,0,4.3-0.1l66.9-20.7c0.7-0.2,1.3-0.6,1.8-1.1L366.6,177c7.7-7.7,11.6-18.2,10.7-29.3c-0.6-7.6-3.6-14.8-8.5-20.7
	c-7.1-8.4-17.2-13.1-28-13.2c-10.1-0.1-19.8,4.1-27,11.3L205.2,233.8c-0.5,0.5-0.9,1.1-1.1,1.8l-19.7,63.9h-77.3
	c-10.8,0-19.9,8.4-20.3,19.2c-0.3,11.2,8.7,20.4,19.8,20.4h292.6c7.8,0,14.5,6.1,14.8,13.9c0.3,8.2-6.3,15-14.4,15H184.2
	c-2.4,0-4.3,1.9-4.3,4.3s1.9,4.3,4.3,4.3h215c12.8,0,23.6-10.5,23.4-23.4C422.5,340.6,412.2,330.6,399.7,330.6L399.7,330.6z
	 M340.5,122.4c7.6,0,14.8,3,20.1,8.3c5.4,5.4,8.3,12.5,8.3,20.1c0,7.1-2.6,13.7-7.2,18.9c1-10.6-2.6-21.5-10.7-29.5
	c-8.1-8.1-19-11.6-29.5-10.7C326.7,124.9,333.4,122.4,340.5,122.4L340.5,122.4z M345,146.3c11.1,11.1,11.1,29.1,0,40.2L258,273.6
	c-3.6-20.4-20-36.6-40.4-40.2l87.2-87.2C315.8,135.2,333.9,135.2,345,146.3L345,146.3z M211.3,241.3c21.1,1,37.8,17.6,38.8,38.7
	l-26.8,8.3c-2.3-9.8-10.2-17.9-20.3-20.2L211.3,241.3z M200.5,276.3c7.3,1.4,13.2,7.2,14.6,14.5l-21.1,6.5L200.5,276.3z
	 M200.5,276.3"/>
<g id="CAMPUS_x5F_DRIVE" class="st1">
	<g id="XMLID_128_" class="st4">
		<circle id="XMLID_115_" class="st3" cx="255.6" cy="151.5" r="27.8"/>
		<path id="XMLID_114_" class="st3" d="M303.6,241c0,0,0,1.3,0-24.6S275.3,190,275.3,190h-39.4c0,0-28.3,0.3-28.3,26.4
			c0,25.9,0,24.6,0,24.6H303.6z"/>
		<circle id="XMLID_113_" class="st3" cx="376.7" cy="151.5" r="27.8"/>
		<path id="XMLID_112_" class="st3" d="M424.7,241c0,0,0,1.3,0-24.6S396.4,190,396.4,190H357c0,0-28.3,0.3-28.3,26.4
			c0,25.9,0,24.6,0,24.6H424.7z"/>
	</g>
	<g id="XMLID_125_" class="st4">
		<circle id="XMLID_111_" class="st6" cx="135.9" cy="151.5" r="27.8"/>
		<path id="XMLID_110_" class="st6" d="M183.9,241c0,0,0,1.3,0-24.6S155.6,190,155.6,190h-39.4c0,0-28.3,0.3-28.3,26.4
			c0,25.9,0,24.6,0,24.6H183.9z"/>
	</g>
	<g id="XMLID_118_" class="st4">
		<circle id="XMLID_108_" class="st3" cx="255.6" cy="288.5" r="27.8"/>
		<path id="XMLID_107_" class="st3" d="M303.6,378c0,0,0,1.3,0-24.6S275.3,327,275.3,327h-39.4c0,0-28.3,0.3-28.3,26.4
			c0,25.9,0,24.6,0,24.6H303.6z"/>
		<circle id="XMLID_106_" class="st3" cx="135.9" cy="288.5" r="27.8"/>
		<path id="XMLID_104_" class="st3" d="M183.9,378c0,0,0,1.3,0-24.6S155.6,327,155.6,327h-39.4c0,0-28.3,0.3-28.3,26.4
			c0,25.9,0,24.6,0,24.6H183.9z"/>
		<circle id="XMLID_103_" class="st3" cx="376.7" cy="286.9" r="27.8"/>
		<path id="XMLID_116_" class="st3" d="M424.7,376.4c0,0,0,1.3,0-24.6s-28.3-26.4-28.3-26.4H357c0,0-28.3,0.3-28.3,26.4
			c0,25.9,0,24.6,0,24.6H424.7z"/>
	</g>
</g>
<g id="XMLID_91_" class="st1">
	<path id="XMLID_139_" class="st2" d="M369.3,319.7c-1.3,0-2.7-0.5-3.8-1.5l-63.3-59.4c-2.2-2.1-2.3-5.5-0.3-7.8
		c2.1-2.2,5.6-2.3,7.8-0.2l63.4,59.4c2.2,2.1,2.3,5.6,0.2,7.8C372.3,319.1,370.8,319.7,369.3,319.7L369.3,319.7z M369.3,319.7"/>
	<path id="XMLID_136_" class="st2" d="M157.9,319.7c-1.5,0-3-0.6-4-1.7c-2.1-2.2-2-5.7,0.2-7.8l63.4-59.4c2.3-2.1,5.8-2,7.8,0.2
		c2.1,2.3,2,5.7-0.2,7.8l-63.4,59.4C160.6,319.2,159.3,319.7,157.9,319.7L157.9,319.7z M157.9,319.7"/>
	<path id="XMLID_132_" class="st2" d="M406.8,375H120.5c-15.2,0-27.5-12.3-27.5-27.5V159.8c0-15.1,12.4-27.5,27.5-27.5h286.3
		c15.1,0,27.5,12.4,27.5,27.5v187.6C434.3,362.7,421.9,375,406.8,375L406.8,375z M120.5,143.3c-9.1,0-16.5,7.4-16.5,16.5v187.6
		c0,9.1,7.4,16.5,16.5,16.5h286.3c9.1,0,16.5-7.4,16.5-16.5V159.8c0-9.1-7.4-16.5-16.5-16.5H120.5z M120.5,143.3"/>
	<path id="XMLID_129_" class="st2" d="M263.6,281.3c-7.4,0-14.7-2.4-20.2-7.3L102.1,150.8c-2.3-2-2.5-5.5-0.5-7.8
		c2-2.3,5.5-2.5,7.8-0.5l141.3,123.3c7,6.1,18.9,6.1,26,0l141.1-123.1c2.3-2,5.8-1.8,7.8,0.5c2,2.3,1.8,5.8-0.5,7.7L283.9,274
		C278.3,278.9,271,281.3,263.6,281.3L263.6,281.3z M263.6,281.3"/>
</g>
<rect id="XMLID_130_" x="98.1" y="94.1" class="st7" width="323.8" height="323.8"/>
<g id="XMLID_131_">
	<path id="XMLID_142_" class="st3" d="M276.3,284.2V277c0-8.7-7.1-15.7-15.9-15.7c-8.8,0-15.9,7-15.9,15.7v7.1
		c0,8.7,7.1,15.7,15.9,15.7C269.2,299.9,276.3,292.8,276.3,284.2L276.3,284.2z M276.3,284.2"/>
	<path id="XMLID_138_" class="st3" d="M287.2,292.9c-3.5,11.4-14.1,19.8-26.8,19.8c-12.7,0-23.3-8.4-26.8-19.8H124.2
		c-6.9,0-13.4-1.6-19.3-4.4v71.8c0,14,11.6,25.5,25.8,25.5h259.4c14.2,0,25.8-11.5,25.8-25.5v-71.8c-5.9,2.7-12.4,4.3-19.3,4.3
		H287.2z M287.2,292.9"/>
	<path id="XMLID_133_" class="st3" d="M395.6,163.9h-61.9c-3.7-23.1-24-40.8-48.4-40.8h-49.6c-24.4,0-44.7,17.7-48.4,40.8h-61.9
		c-14.8,0-26.9,11.5-26.9,25.5v58.8c0,14.1,11.6,25.5,25.8,25.5h108.2c0.3-7.3,3.6-13.9,8.6-18.7c0.1-0.2,0.3-0.3,0.5-0.4
		c1.1-1,2.3-2,3.6-2.8c0.4-0.3,1-0.5,1.5-0.8c1-0.6,2.1-1.2,3.2-1.6c0.9-0.4,1.9-0.6,2.8-0.8c0.8-0.2,1.6-0.6,2.4-0.7
		c1.8-0.4,3.7-0.6,5.6-0.6c1.9,0,3.8,0.2,5.6,0.6c0.8,0.2,1.6,0.5,2.4,0.7c0.9,0.2,1.9,0.5,2.7,0.8c1.1,0.5,2.2,1.1,3.2,1.6
		c0.5,0.3,1,0.5,1.5,0.8c1.3,0.8,2.4,1.8,3.5,2.8c0.2,0.2,0.3,0.2,0.5,0.4c5,4.8,8.2,11.4,8.6,18.7h108.2
		c14.2,0,25.8-11.4,25.8-25.5v-58.9C422.4,175.4,410.3,163.9,395.6,163.9L395.6,163.9z M212.1,163.9c3.3-9.8,12.6-17,23.6-17h49.6
		c11,0,20.3,7.2,23.6,17H212.1z M212.1,163.9"/>
</g>
</svg>
