<?xml version="1.0" encoding="utf-8"?>
<!-- Generator: Adobe Illustrator 19.0.0, SVG Export Plug-In . SVG Version: 6.00 Build 0)  -->
<svg version="1.1" id="Layer_1" xmlns="http://www.w3.org/2000/svg" xmlns:xlink="http://www.w3.org/1999/xlink" x="0px" y="0px"
	 viewBox="0 0 512 512" style="enable-background:new 0 0 512 512;" xml:space="preserve">
<style type="text/css">
	.st0{fill:#283E4A;}
	.st1{display:none;}
	.st2{display:inline;fill:#283E4A;}
	.st3{display:inline;}
	.st4{display:none;fill:#283E4A;}
	.st5{fill:none;stroke:#283E4A;stroke-width:2;stroke-miterlimit:10;}
	.st6{fill:#EDEDED;}
	.st7{display:none;fill:none;stroke:#283E4A;stroke-miterlimit:10;}
	.st8{display:inline;fill:#EDEDED;}
	.st9{fill:none;}
	.st10{font-family:'MyriadPro-Regular';}
	.st11{font-size:20px;}
</style>
<circle id="XMLID_6_" class="st0" cx="256" cy="256" r="256"/>
<g id="JOB" class="st1">
	<path id="XMLID_9_" class="st2" d="M405.6,156.3h-84.3v-14.7c0-14.9-12.1-27.1-27.1-27.1h-68.5c-14.9,0-27.1,12.1-27.1,27.1v14.7
		h-84.3c-13,0-23.6,10.6-23.6,23.6v165.8c0,13,10.6,23.6,23.6,23.6h291.2c13,0,23.6-10.6,23.6-23.6V179.9
		C429.2,166.9,418.6,156.3,405.6,156.3z M212.1,141.6c0-7.5,6.1-13.6,13.6-13.6h68.5c7.5,0,13.6,6.1,13.6,13.6v14.7h-95.7V141.6z
		 M415.7,345.7c0,5.6-4.5,10.1-10.1,10.1H114.4c-5.6,0-10.1-4.5-10.1-10.1V215.6l103.5,50.2c2.1,12.8,13.2,22.6,26.6,22.6h51.2
		c13.4,0,24.5-9.8,26.6-22.6l64.6-31.4c3.3-1.6,4.7-5.7,3.1-9c-1.6-3.4-5.7-4.7-9-3.1l-60.3,29.2c-3.9-10-13.7-17.1-25.1-17.1h-51.2
		c-11.4,0-21.1,7.1-25.1,17.1l-105-50.9v-20.8c0-5.6,4.5-10.1,10.1-10.1h291.2c5.6,0,10.1,4.5,10.1,10.1V345.7z M220.9,261.5
		c0-7.4,6-13.5,13.5-13.5h51.2c7.4,0,13.5,6,13.5,13.5s-6,13.5-13.5,13.5h-51.2C226.9,274.9,220.9,268.9,220.9,261.5z"/>
	<path id="XMLID_2_" class="st2" d="M397.3,209.5l-4.1,2c-3.4,1.6-4.7,5.7-3.1,9c1.2,2.4,3.6,3.8,6.1,3.8c1,0,2-0.2,2.9-0.7l4.1-2
		c3.4-1.6,4.7-5.7,3.1-9C404.7,209.3,400.7,207.9,397.3,209.5z"/>
</g>
<g id="INTERNSHIPS" class="st1">
	<polyline id="XMLID_13_" class="st0" points="268.5,291 275.1,436.9 255.1,455 235.4,437.2 241.8,291 	"/>
	<path id="XMLID_20_" class="st2" d="M104.9,390.4c4.2,0,7.7-3.5,7.7-7.7v-42.6c0-6.8,3-13.1,8.1-17.3c37.9-31.2,79-51.9,86.8-55.7
		c3.6-1.8,5.8-5.3,5.8-9.4v-59.9c0-2.5-1.3-5-3.4-6.3c-5.7-3.8-9.1-10.1-9.1-16.9v-62c0-26.6,21.6-48.2,48.2-48.2h13.3
		c26.6,0,48.2,21.6,48.2,48.2v62.1c0,6.8-3.4,13.1-9.1,16.9c-2.1,1.4-3.4,3.8-3.4,6.3v59.9c0,4.1,2.3,7.6,5.8,9.4
		c7.9,3.8,49,24.6,86.8,55.7c5.2,4.2,8.1,10.6,8.1,17.3v42.6c0,4.2,3.5,7.7,7.7,7.7c4.2,0,7.7-3.5,7.7-7.7v-42.6
		c0-11.3-5-22-13.8-29.1c-35.9-29.5-74.6-50-87.1-56.2v-53c7.9-6.8,12.5-16.6,12.5-27.1v-62.1c0-35-28.5-63.6-63.6-63.6h-13.3
		c-35.1,0-63.6,28.5-63.6,63.6v62.1c0,10.5,4.6,20.4,12.5,27.1v53c-12.5,6.2-51.2,26.8-87.1,56.2c-8.7,7.2-13.8,17.8-13.8,29.1v42.6
		C97.3,386.9,100.6,390.4,104.9,390.4L104.9,390.4z M104.9,390.4"/>
	<path id="XMLID_16_" class="st2" d="M276.3,267.3c-4.2,0-7.7,3.5-7.7,7.7c0,3.8-1.6,7.2-4.2,9.5c-0.5,0.3-1,0.7-1.4,1.2
		c-2,1.4-4.6,2.2-7.3,2.2c-7.1,0-12.9-5.8-12.9-12.9c0-4.2-3.5-7.7-7.7-7.7c-4.2,0-7.7,3.5-7.7,7.7c0,6.8,2.4,13,6.4,17.9l-6.3,144
		c-0.1,2.3,0.8,4.5,2.5,6l19.7,17.8c1.4,1.4,3.3,1.9,5.2,1.9c1.9,0,3.7-0.7,5.1-1.9l20-18.1c1.7-1.5,2.6-3.7,2.5-6l-6.4-142.3
		c4.7-5.1,7.7-11.8,7.7-19.3C284,270.8,280.5,267.3,276.3,267.3L276.3,267.3z M255.1,444.7L243.2,434l5.7-131.7
		c2.2,0.6,4.5,0.8,6.8,0.8c1.9,0,3.8-0.2,5.7-0.6l5.9,131L255.1,444.7z M255.1,444.7"/>
</g>
<g id="USER_x5F_PROFILES" class="st1">
	<path id="XMLID_32_" class="st2" d="M103,270.4c0.3,0,0.5,0,0.8,0c5.8-0.2,11.4-1.4,16.6-3.4l38.3,55.2c0.9,1.3,2.1,2.4,3.6,3
		c3.7,1.5,7.7,0.2,9.8-2.9l38.4-55.4c5.2,2,10.8,3.2,16.6,3.4c0.3,0,0.5,0,0.8,0c9.2,0,17.9,4.5,23.2,12c1.6,2.2,4.1,3.4,6.6,3.4
		c2,0,4-0.7,5.6-2.3c2.9-2.8,3.2-7.4,0.8-10.7c-8-11.2-20.9-18.1-34.6-18.6c-0.3,0-0.6-0.1-0.9-0.1c-17.6,0-32.1-13.3-34.1-30.3
		c5.1-3.7,9.7-8.4,13.9-14c8.4-11.3,13.8-25.5,15.8-40.8c0.6-0.7,1.1-1.5,1.5-2.3c3.5-8.4,5.3-17.4,5.3-26.8
		c0-35.9-27.1-65.1-60.5-65.1c-8.6,0-17,2-24.9,5.8c-3,0.2-5.9,0.8-8.6,1.6c-27.9,8.1-43.6,41.7-35.1,75.1c0.9,3.4,1.9,6.7,3.2,9.8
		c0.4,0.9,0.8,1.6,1.4,2.3c3.2,23.6,14.4,43.2,29.6,54.3c-2,17.1-16.5,30.4-34.1,30.4c-0.3,0-0.5,0-0.8,0c-23.8,0.8-43,20.5-43,44.5
		v48c0,4.5,3.6,8.1,8.1,8.1h142.9c4.1,0,7.7-2.9,8.3-6.9c0.7-5-3.1-9.3-8-9.3H74.6v-39.9C74.6,283.1,87.4,270.4,103,270.4z
		 M141.6,97.9c2.1-0.6,4.4-1,6.7-1.1c1.2-0.1,2.4-0.4,3.4-0.9c6-3.2,12.4-4.8,18.9-4.8c23.9,0,43.4,21,44.2,47.2
		c-4.9-3.7-10.9-5.9-17.5-5.9H155c-2.1,0-4.1-0.7-5.8-1.9c-1.4-1.1-2.5-2.5-3.2-4.2c-1.5-3.8-5.3-6.2-9.4-5.9
		c-4.1,0.3-7.6,3.1-8.6,7.1c-2.1,7.9-5.9,15.3-11.2,21.6C112.6,125.7,123.2,103.2,141.6,97.9z M122.6,166.5
		c7.1-6.5,12.8-14.4,16.8-23c0,0,0,0,0,0c4.5,3.4,9.9,5.2,15.6,5.2h42.4c5.1,0,9.5,3,11.6,7.3c-0.1,16.8-4.9,32.6-13.5,44.3
		c-8.2,11.1-18.8,17.2-30,17.2c-10.3,0-20.4-5.3-28.3-15C129.5,193,124.4,180.4,122.6,166.5z M165.4,233.6c4.8,0,9.5-0.7,14.1-2.1
		c2.6,10.8,8.6,20.4,16.9,27.3l-31,44.8l-31-44.8c8.3-6.9,14.4-16.4,16.9-27.3C155.9,232.9,160.6,233.6,165.4,233.6z"/>
	<path id="XMLID_8_" class="st2" d="M404.4,299.2c-0.3,0-0.5,0-0.8,0c-17.6,0-32.1-13.3-34.1-30.4c9.9-7.2,18.1-18.1,23.5-31.2
		c0.8,2.5,2.7,4.6,5.3,5.4c0.8,0.2,1.6,0.4,2.4,0.4c2.5,0,4.8-1.1,6.4-3.1c11.3-14.5,17.2-33.4,16.5-53.2
		c-0.6-19.4-7.4-37.6-19.2-51.3c-12.1-14-28-21.8-44.8-22c-0.9,0-3.1,0-3.5,0.1c-8.7-3.9-17.8-5.8-27.2-5.5
		c-19.5,0.6-37.4,10.3-50.4,27.3c-12.7,16.5-19.3,38.1-18.5,60.7c0.1,3.8,0.4,7.4,0.9,10.7c1.3,9.6,4,18.8,7.8,27.3
		c0.8,1.7,2.1,3.1,3.7,4c4,2,8.5,0.5,10.6-3c0.7-1.1,1.5-2.4,2.4-3.7c3.6,11,9.1,20.8,16.1,28.6c3,3.3,6.2,6.2,9.6,8.7
		c-2,17.1-16.5,30.4-34.1,30.4c-0.3,0-0.5,0-0.8,0c-23.8,0.8-43,20.5-43,44.5v48c0,4.5,3.6,8.1,8.1,8.1h197.8c4.5,0,8.1-3.6,8.1-8.1
		v-48C447.4,319.7,428.3,300.1,404.4,299.2z M278.8,214.3c-0.8-3.1-1.4-6.3-1.9-9.6c-0.4-2.8-0.7-5.7-0.8-9
		c-0.6-18.9,4.8-36.7,15.2-50.3c10-13.1,23.6-20.5,38.1-21c0.5,0,10.9-0.6,21.6,4.8c1.2,0.6,2.6,0.9,3.9,0.8c0.2,0,4.3-0.2,4.4-0.2
		c12.2,0.1,23.8,5.9,32.8,16.3c9.4,10.9,14.8,25.5,15.3,41.3c0.3,8.5-0.9,16.9-3.5,24.5c-0.8-2-1.6-4-2.6-6
		c-7.8-16.6-20.9-29.5-36.9-36.2c-1-0.4-2.1-0.7-3.2-0.7c-3.6,0-6.5,2.2-7.7,5.3c-1.1,2.9-2.4,5.8-3.9,8.4
		c-4.2,7.6-12.8,12.1-22.3,11.8c-1.4,0-2.9-0.1-4.3,0c-7,0.2-13.8,1.6-20.3,4C296.4,200.9,285.6,207,278.8,214.3z M298.8,218.7
		c3.1-2.1,6.3-3.8,9.8-5c4.8-1.8,9.9-2.8,15.2-3c1.1,0,2.2,0,3.2,0c15.6,0.5,29.8-7.1,37-20.1c0.4-0.8,0.9-1.6,1.3-2.4
		c7.4,4.6,13.7,11,18.5,18.8c0,0.2-0.1,0.5-0.1,0.7c-1.2,15.4-6.5,29.5-14.9,39.7c-7.9,9.7-18,15-28.3,15
		C321.3,262.4,304.3,244.3,298.8,218.7z M340.4,278.7c4.9,0,9.6-0.8,14.1-2.2c3.3,13.8,12.2,25.4,24.2,32.3
		c-4.7,16.9-20.2,29.1-38.2,29.1c-18,0-33.6-12.2-38.2-29.1c12-6.9,20.9-18.5,24.2-32.3C330.9,277.9,335.6,278.7,340.4,278.7z
		 M431.2,383.6H249.6v-39.9c0-15.6,12.8-28.2,28.4-28.4c0.2,0,0.5,0,0.7,0c2.8-0.1,5.5-0.4,8.2-0.9c7,23.1,28.6,39.6,53.4,39.6
		s46.4-16.5,53.4-39.6c2.7,0.5,5.4,0.8,8.2,0.9c0.3,0,0.5,0,0.8,0c15.6,0,28.4,12.7,28.4,28.4V383.6z"/>
</g>
<g id="NETWORK" class="st1">
	<path id="XMLID_75_" class="st2" d="M257.4,110.1c-5.1,0-10.3-1.5-14.7-4.4c-7.1-4.6-11.7-12.6-12.3-21.3v0l-1.4-22
		c-0.5-7.8,2.3-15.6,7.6-21.3s12.9-9,20.8-9c7.9,0,15.4,3.3,20.8,9c5.4,5.7,8.2,13.5,7.6,21.3l-1.4,22c-0.6,8.7-5.2,16.6-12.3,21.3
		C267.7,108.7,262.6,110.1,257.4,110.1z M248.3,83.4c0.2,3.1,1.8,5.9,4.2,7.4c3,2,7,2,10,0c2.4-1.6,4-4.3,4.2-7.4l1.4-22
		c0.2-3-0.8-5.8-2.8-7.9c-2-2.2-4.8-3.4-7.7-3.4c-3,0-5.7,1.2-7.7,3.4c-2,2.2-3,5-2.8,7.9L248.3,83.4z"/>
	<path id="XMLID_72_" class="st2" d="M319.4,173.2H195.5c-2.7,0-5.2-1.2-6.9-3.2c-1.7-2-2.4-4.7-1.9-7.3l2.5-13.7
		c3.3-18,17.6-32.4,35.6-35.8c2.7-0.5,5.5-0.8,8.3-0.8h7.5c2.4,0,4.6,0.9,6.3,2.6c2.8,2.8,6.6,4.4,10.6,4.4s7.8-1.6,10.6-4.4
		c1.7-1.7,4-2.6,6.3-2.6h7.5c2.8,0,5.5,0.3,8.3,0.8c18,3.4,32.3,17.8,35.6,35.8l0,0l2.5,13.7c0.5,2.6-0.2,5.3-1.9,7.3
		C324.6,172.1,322,173.2,319.4,173.2z M206.2,155.3h102.5l-0.6-3.2c-2-10.8-10.5-19.4-21.3-21.4c-1.6-0.3-3.3-0.5-4.9-0.5h-4.1
		c-5.8,4.6-12.9,7-20.3,7c-7.5,0-14.6-2.5-20.3-7H233c-1.7,0-3.3,0.2-4.9,0.5c-10.8,2-19.3,10.6-21.3,21.4L206.2,155.3z"/>
	<path id="XMLID_69_" class="st2" d="M257.4,417.5c-5.1,0-10.3-1.5-14.7-4.4c-7.1-4.6-11.7-12.6-12.3-21.3l0,0l-1.4-22
		c-0.5-7.8,2.3-15.6,7.6-21.3c5.4-5.7,12.9-9,20.8-9c7.9,0,15.4,3.3,20.8,9c5.4,5.7,8.2,13.5,7.6,21.3l-1.4,22
		c-0.6,8.7-5.2,16.6-12.3,21.3C267.7,416,262.6,417.5,257.4,417.5z M248.3,390.7c0.2,3.1,1.8,5.9,4.2,7.4c3,2,7,2,10,0
		c2.4-1.6,4-4.3,4.2-7.4l1.4-22c0.2-3-0.8-5.8-2.8-7.9c-2-2.2-4.8-3.4-7.7-3.4c-3,0-5.7,1.2-7.7,3.4c-2,2.2-3,5-2.8,7.9L248.3,390.7
		z"/>
	<path id="XMLID_66_" class="st2" d="M319.4,480.6H195.5c-2.7,0-5.2-1.2-6.9-3.2c-1.7-2-2.4-4.7-1.9-7.3l2.5-13.7
		c3.3-18,17.6-32.4,35.6-35.8c2.7-0.5,5.5-0.8,8.3-0.8h7.5c2.4,0,4.6,0.9,6.3,2.6c5.9,5.9,15.4,5.9,21.3,0c1.7-1.7,4-2.6,6.3-2.6
		h7.5c2.8,0,5.5,0.3,8.3,0.8c18,3.4,32.3,17.8,35.6,35.8l0,0l2.5,13.7c0.5,2.6-0.2,5.3-1.9,7.3C324.6,479.4,322,480.6,319.4,480.6z
		 M206.2,462.7h102.5l-0.6-3.2c-2-10.8-10.5-19.4-21.3-21.4c-1.6-0.3-3.3-0.5-4.9-0.5h-4.1c-11.9,9.4-28.8,9.4-40.7,0H233
		c-1.7,0-3.3,0.2-5,0.5c-10.8,2-19.3,10.6-21.3,21.4L206.2,462.7z"/>
	<path id="XMLID_63_" class="st2" d="M103.8,263.8c-5.1,0-10.3-1.5-14.7-4.4c-7.1-4.6-11.7-12.6-12.3-21.3l-1.4-22
		c-0.5-7.8,2.3-15.6,7.6-21.3c5.4-5.7,13-9,20.8-9s15.4,3.3,20.8,9c5.4,5.7,8.2,13.5,7.6,21.3l-1.4,22c-0.6,8.7-5.2,16.6-12.3,21.3
		C114,262.4,108.9,263.8,103.8,263.8z M103.8,203.7c-3,0-5.7,1.2-7.7,3.4c-2,2.2-3,5-2.8,7.9l1.4,22l0,0c0.2,3.1,1.8,5.9,4.2,7.4
		c3,2,7,2,10,0c2.4-1.6,4-4.3,4.2-7.4l1.4-22c0.2-3-0.8-5.8-2.8-7.9C109.5,204.9,106.7,203.7,103.8,203.7z"/>
	<path id="XMLID_60_" class="st2" d="M165.7,326.9H41.8c-2.7,0-5.2-1.2-6.9-3.2c-1.7-2-2.4-4.7-1.9-7.3l2.5-13.7
		c3.3-18,17.6-32.4,35.6-35.8c2.7-0.5,5.5-0.8,8.3-0.8h7.5c2.4,0,4.6,0.9,6.3,2.6c5.9,5.9,15.4,5.9,21.3,0c1.7-1.7,4-2.6,6.3-2.6
		h7.5c2.8,0,5.5,0.3,8.3,0.8c18,3.4,32.3,17.8,35.6,35.8l0,0l2.5,13.7c0.5,2.6-0.2,5.3-1.9,7.3C170.9,325.7,168.4,326.9,165.7,326.9
		z M52.5,309H155l-0.6-3.2c-2-10.8-10.5-19.4-21.3-21.4c-1.6-0.3-3.3-0.5-4.9-0.5h-4.1c-5.8,4.6-12.9,7-20.3,7s-14.6-2.5-20.3-7
		h-4.1c-1.7,0-3.3,0.2-4.9,0.5c-10.8,2-19.3,10.6-21.3,21.4L52.5,309z"/>
	<path id="XMLID_57_" class="st2" d="M411.1,263.8c-5.1,0-10.3-1.5-14.7-4.4c-7.1-4.6-11.7-12.6-12.3-21.3l-1.4-22
		c-0.5-7.8,2.3-15.6,7.6-21.3c5.4-5.7,12.9-9,20.8-9c7.9,0,15.4,3.3,20.8,9c5.4,5.7,8.2,13.5,7.6,21.3l-1.4,22
		c-0.6,8.7-5.2,16.6-12.3,21.3C421.4,262.4,416.2,263.8,411.1,263.8z M411.1,203.7c-3,0-5.7,1.2-7.7,3.4s-3,5-2.8,7.9l1.4,22l0,0
		c0.2,3.1,1.8,5.9,4.2,7.4c3,2,7,2,10,0c2.4-1.6,4-4.3,4.2-7.4l1.4-22c0.2-3-0.8-5.8-2.8-7.9C416.8,204.9,414.1,203.7,411.1,203.7z"
		/>
	<path id="XMLID_54_" class="st2" d="M473.1,326.9H349.1c-2.7,0-5.2-1.2-6.9-3.2c-1.7-2-2.4-4.7-1.9-7.3l2.5-13.7
		c3.3-18,17.6-32.4,35.6-35.8c2.7-0.5,5.5-0.8,8.3-0.8h7.5c2.4,0,4.6,0.9,6.3,2.6c5.9,5.9,15.4,5.9,21.3,0c1.7-1.7,4-2.6,6.3-2.6
		h7.5c2.8,0,5.5,0.3,8.3,0.8c18,3.4,32.3,17.8,35.6,35.8l0,0l2.5,13.7c0.5,2.6-0.2,5.3-1.9,7.3C478.2,325.7,475.7,326.9,473.1,326.9
		z M359.8,309h102.5l-0.6-3.2c-2-10.8-10.5-19.4-21.3-21.4c-1.6-0.3-3.3-0.5-4.9-0.5h-4.1c-5.8,4.6-12.9,7-20.3,7s-14.6-2.5-20.3-7
		h-4.1c-1.7,0-3.3,0.2-4.9,0.5c-10.8,2-19.3,10.6-21.3,21.4L359.8,309z"/>
	<path id="XMLID_30_" class="st2" d="M118,164.4c-1.8,0-3.6-0.5-5.2-1.7c-4-2.9-4.9-8.5-2.1-12.5c21.9-30.6,53.4-54,88.9-66
		c4.7-1.6,9.8,0.9,11.3,5.6s-0.9,9.8-5.6,11.3c-31.9,10.8-60.4,31.9-80.1,59.4C123.5,163.1,120.8,164.4,118,164.4z"/>
	<path id="XMLID_29_" class="st2" d="M397.1,164.4c-2.8,0-5.5-1.3-7.3-3.7c-13.9-19.4-32.2-35.8-53-47.4c-4.3-2.4-5.9-7.9-3.4-12.2
		c2.4-4.3,7.9-5.9,12.2-3.4c23.1,12.9,43.4,31.1,58.8,52.6c2.9,4,2,9.6-2.1,12.5C400.8,163.9,398.9,164.4,397.1,164.4z"/>
	<path id="XMLID_28_" class="st2" d="M317,103.3c-1,0-2.1-0.2-3.1-0.6c-1.4-0.5-2.8-1-4.2-1.5c-4.7-1.6-7.2-6.7-5.6-11.3
		c1.6-4.7,6.7-7.2,11.3-5.6c1.5,0.5,3.1,1.1,4.6,1.6c4.6,1.7,7,6.9,5.3,11.5C324.1,101,320.7,103.3,317,103.3z"/>
	<path id="XMLID_27_" class="st2" d="M202.5,419.6c-1,0-1.9-0.2-2.9-0.5c-35.4-12-67-35.4-88.9-66c-2.9-4-2-9.6,2.1-12.5
		c4-2.9,9.6-2,12.5,2.1c19.7,27.5,48.1,48.6,80.1,59.4c4.7,1.6,7.2,6.7,5.6,11.3C209.7,417.2,206.2,419.6,202.5,419.6z"/>
	<path id="XMLID_48_" class="st2" d="M312.6,419.6c-3.7,0-7.2-2.4-8.5-6.1c-1.6-4.7,0.9-9.8,5.6-11.3c31.9-10.8,60.4-31.9,80.1-59.4
		c2.9-4,8.5-4.9,12.5-2.1c4,2.9,4.9,8.5,2.1,12.5c-22.2,31-52.9,53.8-88.9,66C314.6,419.4,313.6,419.6,312.6,419.6z"/>
</g>
<g id="SETTINGS" class="st1">
	<path id="XMLID_64_" class="st2" d="M405.8,220h-31.1c-5,0-9.1-2.8-11-7.4c-1.9-4.6-0.9-9.5,2.6-13l22-22c3.2-3.2,5-7.5,5-12.1
		c0-4.6-1.8-8.9-5-12.1l-28-28c-6.5-6.5-17.7-6.5-24.2,0l-22,22c-3.5,3.5-8.4,4.5-13,2.6c-4.6-1.9-7.4-6-7.4-11V108
		c0-9.4-7.7-17.1-17.1-17.1h-39.6c-9.4,0-17.1,7.7-17.1,17.1v31.1c0,5-2.8,9.1-7.4,11c-4.6,1.9-9.5,0.9-13-2.6l-22-22
		c-6.5-6.5-17.7-6.5-24.2,0l-28,28c-3.2,3.2-5,7.5-5,12.1c0,4.6,1.8,8.9,5,12.1l22,22c3.5,3.5,4.5,8.4,2.6,13c-1.9,4.6-6,7.4-11,7.4
		H108c-9.4,0-17.1,7.7-17.1,17.1v39.6c0,9.4,7.7,17.1,17.1,17.1H139c5,0,9.1,2.8,11,7.4c1.9,4.6,0.9,9.5-2.6,13l-22,22
		c-3.2,3.2-5,7.5-5,12.1c0,4.6,1.8,8.9,5,12.1l28,28c6.5,6.5,17.7,6.5,24.2,0l22-22c3.5-3.5,8.4-4.5,13-2.6c4.6,1.9,7.4,6,7.4,11
		v31.1c0,9.4,7.7,17.1,17.1,17.1h39.6c9.4,0,17.1-7.7,17.1-17.1v-31.1c0-5,2.8-9.1,7.4-11c4.6-1.9,9.5-0.9,13,2.6l22,22
		c6.5,6.5,17.7,6.5,24.2,0l28-28c3.2-3.2,5-7.5,5-12.1c0-4.5-1.8-8.8-5-12.1l-22-22c-3.5-3.5-4.5-8.4-2.6-13c1.9-4.6,6-7.4,11-7.4
		h31.1c9.4,0,17.1-7.7,17.1-17.1v-39.6C422.9,227.7,415.2,220,405.8,220L405.8,220z M410.6,276.7c0,2.6-2.2,4.8-4.8,4.8h-31.1
		c-10,0-18.6,5.7-22.4,14.9c-3.8,9.2-1.8,19.3,5.3,26.4l21.9,22c1.9,1.9,1.9,4.9,0,6.8l-28,28c-1.9,1.9-4.9,1.9-6.8,0l-22-21.9
		c-7.1-7.1-17.2-9.1-26.4-5.3c-9.2,3.8-14.9,12.4-14.9,22.4v31.1c0,2.6-2.2,4.8-4.8,4.8h-39.6c-2.6,0-4.8-2.2-4.8-4.8v-31.1
		c0-10-5.7-18.6-14.9-22.4c-3.1-1.3-6.3-1.9-9.4-1.9c-6.2,0-12.3,2.5-17,7.1l-22,22c-1.9,1.9-4.9,1.9-6.8,0l-28-28
		c-1.9-1.9-1.9-4.9,0-6.8l22-21.9c7.1-7.1,9.1-17.2,5.2-26.4c-3.8-9.2-12.4-14.9-22.4-14.9H108c-2.6,0-4.8-2.2-4.8-4.8v-39.6
		c0-2.6,2.1-4.8,4.8-4.8H139c10,0,18.6-5.7,22.4-14.9c3.8-9.2,1.8-19.3-5.2-26.4l-22-21.9c-1.9-1.9-1.9-4.9,0-6.8l28-28
		c1.9-1.9,4.9-1.9,6.8,0l22,21.9c7.1,7.1,17.2,9.1,26.4,5.3c9.2-3.8,14.9-12.4,14.9-22.4V108c0-2.6,2.2-4.8,4.8-4.8h39.6
		c2.6,0,4.8,2.1,4.8,4.8v31.1c0,10,5.7,18.6,14.9,22.4c9.2,3.8,19.3,1.8,26.4-5.2l22-22c1.9-1.9,4.9-1.9,6.8,0l28,28
		c1.9,1.9,1.9,4.9,0,6.8L357.6,191c-7.1,7-9.1,17.2-5.3,26.4c3.8,9.2,12.4,14.9,22.4,14.9h31.1c2.6,0,4.8,2.1,4.8,4.8V276.7z
		 M410.6,276.7"/>
	<path id="XMLID_58_" class="st2" d="M256.9,201.6c-30.5,0-55.4,24.8-55.4,55.4c0,30.5,24.8,55.3,55.4,55.3
		c30.5,0,55.3-24.8,55.3-55.3C312.2,226.4,287.4,201.6,256.9,201.6L256.9,201.6z M256.9,299.9c-23.7,0-43.1-19.3-43.1-43
		c0-23.7,19.3-43.1,43.1-43.1c23.7,0,43,19.3,43,43.1C299.9,280.6,280.6,299.9,256.9,299.9L256.9,299.9z M256.9,299.9"/>
</g>
<g id="SKILLS" class="st1">
	<g id="XMLID_49_" class="st3">
		<path id="XMLID_109_" class="st0" d="M103.5,302.6h12.5v110.8h92.9V302.6h12.5v-133H103.5V302.6z M123.6,189.6h28.8v62.7h20.1
			v-62.7h28.8v92.8h-12.5v110.8H136V282.5h-12.5V189.6z M123.6,189.6"/>
		<path id="XMLID_105_" class="st0" d="M162.4,156.1c18.7,0,33.8-15.2,33.8-33.8c0-18.7-15.2-33.8-33.8-33.8
			c-18.7,0-33.8,15.2-33.8,33.8C128.5,140.9,143.7,156.1,162.4,156.1L162.4,156.1z M162.4,108.5c7.6,0,13.7,6.2,13.7,13.7
			c0,7.6-6.2,13.7-13.7,13.7c-7.6,0-13.7-6.2-13.7-13.7C148.6,114.7,154.8,108.5,162.4,108.5L162.4,108.5z M162.4,108.5"/>
		<path id="XMLID_101_" class="st0" d="M373.6,155.3c18.4,0,33.4-15,33.4-33.4c0-18.4-15-33.4-33.4-33.4c-18.4,0-33.4,15-33.4,33.4
			C340.2,140.3,355.2,155.3,373.6,155.3L373.6,155.3z M373.6,108.5c7.4,0,13.3,6,13.3,13.3c0,7.4-6,13.3-13.3,13.3
			c-7.4,0-13.3-6-13.3-13.3C360.3,114.5,366.3,108.5,373.6,108.5L373.6,108.5z M373.6,108.5"/>
		<path id="XMLID_97_" class="st0" d="M373.6,346.5c-18.4,0-33.4,15-33.4,33.4c0,18.4,15,33.4,33.4,33.4c18.4,0,33.4-15,33.4-33.4
			C407.1,361.5,392.1,346.5,373.6,346.5L373.6,346.5z M373.6,393.3c-7.4,0-13.3-6-13.3-13.3c0-7.4,6-13.3,13.3-13.3
			c7.4,0,13.3,6,13.3,13.3C387,387.3,381,393.3,373.6,393.3L373.6,393.3z M373.6,393.3"/>
		<path id="XMLID_93_" class="st0" d="M373.6,260.5c-18.4,0-33.4,15-33.4,33.4c0,18.4,15,33.4,33.4,33.4c18.4,0,33.4-15,33.4-33.4
			C407.1,275.5,392.1,260.5,373.6,260.5L373.6,260.5z M373.6,307.3c-7.4,0-13.3-6-13.3-13.3c0-7.4,6-13.3,13.3-13.3
			c7.4,0,13.3,6,13.3,13.3C387,301.3,381,307.3,373.6,307.3L373.6,307.3z M373.6,307.3"/>
		<path id="XMLID_89_" class="st0" d="M373.6,174.5c-18.4,0-33.4,15-33.4,33.4c0,18.4,15,33.4,33.4,33.4c18.4,0,33.4-15,33.4-33.4
			C407.1,189.5,392.1,174.5,373.6,174.5L373.6,174.5z M373.6,221.2c-7.4,0-13.3-6-13.3-13.3c0-7.4,6-13.3,13.3-13.3
			c7.4,0,13.3,6,13.3,13.3C387,215.2,381,221.2,373.6,221.2L373.6,221.2z M373.6,221.2"/>
		<path id="XMLID_59_" class="st0" d="M271.4,240.9h-26.6V261h26.6V390h46.7v-20.1h-26.6V304h26.6v-20.1h-26.6v-65.9h26.6v-20.1
			h-26.6v-65.9h26.6v-20.1h-46.7V240.9z M271.4,240.9"/>
	</g>
</g>
<path id="XMLID_100_" class="st4" d="M399.7,330.6H107c-6.1,0-11.3-4.7-11.6-10.7c-0.3-6.5,4.9-11.9,11.3-11.9h77.8
	c0,0,3.9,0,4.3-0.1l66.9-20.7c0.7-0.2,1.3-0.6,1.8-1.1L366.6,177c7.7-7.7,11.6-18.2,10.7-29.3c-0.6-7.6-3.6-14.8-8.5-20.7
	c-7.1-8.4-17.2-13.1-28-13.2c-10.1-0.1-19.8,4.1-27,11.3L205.2,233.8c-0.5,0.5-0.9,1.1-1.1,1.8l-19.7,63.9h-77.3
	c-10.8,0-19.9,8.4-20.3,19.2c-0.3,11.2,8.7,20.4,19.8,20.4h292.6c7.8,0,14.5,6.1,14.8,13.9c0.3,8.2-6.3,15-14.4,15H184.2
	c-2.4,0-4.3,1.9-4.3,4.3s1.9,4.3,4.3,4.3h215c12.8,0,23.6-10.5,23.4-23.4C422.5,340.6,412.2,330.6,399.7,330.6L399.7,330.6z
	 M340.5,122.4c7.6,0,14.8,3,20.1,8.3c5.4,5.4,8.3,12.5,8.3,20.1c0,7.1-2.6,13.7-7.2,18.9c1-10.6-2.6-21.5-10.7-29.5
	c-8.1-8.1-19-11.6-29.5-10.7C326.7,124.9,333.4,122.4,340.5,122.4L340.5,122.4z M345,146.3c11.1,11.1,11.1,29.1,0,40.2L258,273.6
	c-3.6-20.4-20-36.6-40.4-40.2l87.2-87.2C315.8,135.2,333.9,135.2,345,146.3L345,146.3z M211.3,241.3c21.1,1,37.8,17.6,38.8,38.7
	l-26.8,8.3c-2.3-9.8-10.2-17.9-20.3-20.2L211.3,241.3z M200.5,276.3c7.3,1.4,13.2,7.2,14.6,14.5l-21.1,6.5L200.5,276.3z
	 M200.5,276.3"/>
<g id="CAMPUS_x5F_DRIVE" class="st1">
	<g id="XMLID_128_" class="st3">
		<circle id="XMLID_115_" class="st0" cx="255.6" cy="151.5" r="27.8"/>
		<path id="XMLID_114_" class="st0" d="M303.6,241c0,0,0,1.3,0-24.6S275.3,190,275.3,190h-39.4c0,0-28.3,0.3-28.3,26.4
			c0,25.9,0,24.6,0,24.6H303.6z"/>
		<circle id="XMLID_113_" class="st0" cx="376.7" cy="151.5" r="27.8"/>
		<path id="XMLID_112_" class="st0" d="M424.7,241c0,0,0,1.3,0-24.6S396.4,190,396.4,190H357c0,0-28.3,0.3-28.3,26.4
			c0,25.9,0,24.6,0,24.6H424.7z"/>
	</g>
	<g id="XMLID_125_" class="st3">
		<circle id="XMLID_111_" class="st5" cx="135.9" cy="151.5" r="27.8"/>
		<path id="XMLID_110_" class="st5" d="M183.9,241c0,0,0,1.3,0-24.6S155.6,190,155.6,190h-39.4c0,0-28.3,0.3-28.3,26.4
			c0,25.9,0,24.6,0,24.6H183.9z"/>
	</g>
	<g id="XMLID_118_" class="st3">
		<circle id="XMLID_108_" class="st0" cx="255.6" cy="288.5" r="27.8"/>
		<path id="XMLID_107_" class="st0" d="M303.6,378c0,0,0,1.3,0-24.6S275.3,327,275.3,327h-39.4c0,0-28.3,0.3-28.3,26.4
			c0,25.9,0,24.6,0,24.6H303.6z"/>
		<circle id="XMLID_106_" class="st0" cx="135.9" cy="288.5" r="27.8"/>
		<path id="XMLID_104_" class="st0" d="M183.9,378c0,0,0,1.3,0-24.6S155.6,327,155.6,327h-39.4c0,0-28.3,0.3-28.3,26.4
			c0,25.9,0,24.6,0,24.6H183.9z"/>
		<circle id="XMLID_103_" class="st0" cx="376.7" cy="286.9" r="27.8"/>
		<path id="XMLID_116_" class="st0" d="M424.7,376.4c0,0,0,1.3,0-24.6s-28.3-26.4-28.3-26.4H357c0,0-28.3,0.3-28.3,26.4
			c0,25.9,0,24.6,0,24.6H424.7z"/>
	</g>
</g>
<g id="XMLID_91_">
	<path id="XMLID_139_" class="st6" d="M351.7,318.4c-1.2,0-2.4-0.4-3.4-1.4l-57.4-53.8c-2-1.9-2.1-5-0.2-7.1c1.9-2,5.1-2.1,7.1-0.2
		l57.4,53.8c2,1.9,2.1,5.1,0.2,7.1C354.4,317.9,353,318.4,351.7,318.4L351.7,318.4z M351.7,318.4"/>
	<path id="XMLID_136_" class="st6" d="M160,318.4c-1.4,0-2.7-0.5-3.7-1.6c-1.9-2-1.8-5.2,0.2-7.1L214,256c2-1.9,5.2-1.8,7.1,0.2
		c1.9,2,1.8,5.2-0.2,7.1l-57.5,53.8C162.5,318,161.2,318.4,160,318.4L160,318.4z M160,318.4"/>
	<path id="XMLID_132_" class="st6" d="M385.7,368.5H126.1c-13.7,0-24.9-11.2-24.9-24.9V173.5c0-13.7,11.2-24.9,24.9-24.9h259.6
		c13.7,0,24.9,11.2,24.9,24.9v170.1C410.6,357.4,399.4,368.5,385.7,368.5L385.7,368.5z M126.1,158.5c-8.2,0-15,6.7-15,15v170.1
		c0,8.3,6.7,15,15,15h259.6c8.3,0,15-6.7,15-15V173.5c0-8.2-6.7-15-15-15H126.1z M126.1,158.5"/>
	<path id="XMLID_129_" class="st6" d="M255.9,283.6c-6.7,0-13.3-2.2-18.3-6.6L109.4,165.2c-2.1-1.8-2.3-5-0.5-7.1
		c1.8-2.1,5-2.2,7.1-0.5l128.1,111.8c6.4,5.6,17.2,5.6,23.5,0l128-111.6c2.1-1.8,5.2-1.6,7.1,0.5c1.8,2.1,1.6,5.2-0.5,7L274.2,277
		C269.1,281.4,262.5,283.6,255.9,283.6L255.9,283.6z M255.9,283.6"/>
</g>
<rect id="XMLID_130_" x="98.1" y="94.1" class="st7" width="323.8" height="323.8"/>
<g id="JOB_1_" class="st1">
	<path id="XMLID_142_" class="st8" d="M276.3,284.2V277c0-8.7-7.1-15.7-15.9-15.7c-8.8,0-15.9,7-15.9,15.7v7.1
		c0,8.7,7.1,15.7,15.9,15.7C269.2,299.9,276.3,292.8,276.3,284.2L276.3,284.2z M276.3,284.2"/>
	<path id="XMLID_138_" class="st8" d="M287.2,292.9c-3.5,11.4-14.1,19.8-26.8,19.8c-12.7,0-23.3-8.4-26.8-19.8H124.2
		c-6.9,0-13.4-1.6-19.3-4.4v71.8c0,14,11.6,25.5,25.8,25.5h259.4c14.2,0,25.8-11.5,25.8-25.5v-71.8c-5.9,2.7-12.4,4.3-19.3,4.3
		H287.2z M287.2,292.9"/>
	<path id="XMLID_133_" class="st8" d="M395.6,163.9h-61.9c-3.7-23.1-24-40.8-48.4-40.8h-49.6c-24.4,0-44.7,17.7-48.4,40.8h-61.9
		c-14.8,0-26.9,11.5-26.9,25.5v58.8c0,14.1,11.6,25.5,25.8,25.5h108.2c0.3-7.3,3.6-13.9,8.6-18.7c0.1-0.2,0.3-0.3,0.5-0.4
		c1.1-1,2.3-2,3.6-2.8c0.4-0.3,1-0.5,1.5-0.8c1-0.6,2.1-1.2,3.2-1.6c0.9-0.4,1.9-0.6,2.8-0.8c0.8-0.2,1.6-0.6,2.4-0.7
		c1.8-0.4,3.7-0.6,5.6-0.6c1.9,0,3.8,0.2,5.6,0.6c0.8,0.2,1.6,0.5,2.4,0.7c0.9,0.2,1.9,0.5,2.7,0.8c1.1,0.5,2.2,1.1,3.2,1.6
		c0.5,0.3,1,0.5,1.5,0.8c1.3,0.8,2.4,1.8,3.5,2.8c0.2,0.2,0.3,0.2,0.5,0.4c5,4.8,8.2,11.4,8.6,18.7h108.2
		c14.2,0,25.8-11.4,25.8-25.5v-58.9C422.4,175.4,410.3,163.9,395.6,163.9L395.6,163.9z M212.1,163.9c3.3-9.8,12.6-17,23.6-17h49.6
		c11,0,20.3,7.2,23.6,17H212.1z M212.1,163.9"/>
</g>
<g id="INTERNSHIPS_1_" class="st1">
	<path id="XMLID_157_" class="st8" d="M417.1,312.6c-18.6-15.3-38.7-25.4-42.7-27.4c-0.5-0.2-0.8-0.7-0.8-1.2v-29
		c3.6-2.4,6-6.6,6-11.3v-30.1c0-14.9-12.1-27.1-27.1-27.1h-6.4c-14.9,0-27.1,12.1-27.1,27.1v30.1c0,4.7,2.4,8.8,6,11.3v29
		c0,0.2-0.1,0.3-0.1,0.5c5.7,3.9,11.6,8.3,17.5,13.1c6.8,5.6,10.7,13.8,10.7,22.7v24.2h69.2v-20.6
		C422.4,319.5,420.5,315.3,417.1,312.6L417.1,312.6z M421.3,312.6"/>
	<path id="XMLID_154_" class="st8" d="M195.4,284v-29c3.6-2.4,6-6.6,6-11.3v-30.1c0-14.9-12.1-27.1-27.1-27.1h-6.4
		c-14.9,0-27,12.1-27,27.1v30.1c0,4.7,2.4,8.8,6,11.3v29c0,0.5-0.3,1-0.8,1.2c-4.1,2-24.2,12.1-42.7,27.4c-3.4,2.7-5.3,6.9-5.3,11.2
		v20.6h69.2v-24.2c0-8.8,3.9-17.1,10.7-22.7c5.8-4.8,11.8-9.2,17.5-13.1C195.5,284.3,195.4,284.2,195.4,284L195.4,284z M195.4,284"
		/>
	<path id="XMLID_151_" class="st8" d="M339.9,307c-21.8-17.9-45.4-29.9-50.3-32.3c-0.5-0.3-0.9-0.8-0.9-1.4v-34
		c4.2-2.9,7.1-7.7,7.1-13.2v-35.3c0-17.5-14.2-31.8-31.8-31.8h-7.5c-17.5,0-31.8,14.2-31.8,31.8V226c0,5.5,2.8,10.4,7.1,13.2v34
		c0,0.6-0.3,1.2-0.9,1.4c-4.8,2.3-28.4,14.2-50.3,32.3c-4,3.2-6.2,8.1-6.2,13.2v24.2H249l7.4-33.8c-14.9-20.8,1.1-21.8,3.9-21.8
		c2.8,0,18.8,1,3.9,21.8l7.4,33.8h74.6v-24.2C346.1,315.1,343.8,310.3,339.9,307L339.9,307z M339.9,307"/>
</g>
<g id="USER" class="st1">
	<path id="XMLID_159_" class="st8" d="M260.1,250.6c35,0,63.3-35,63.3-78.2c0-43.2-9.3-78.2-63.3-78.2c-54,0-63.3,35-63.3,78.2
		C196.8,215.6,225.1,250.6,260.1,250.6L260.1,250.6z M260.1,250.6"/>
	<path id="XMLID_155_" class="st8" d="M379.5,366.8c-1.2-75.2-10.8-96.6-84.8-110.2c0,0-10.4,13.5-34.7,13.5
		c-24.3,0-34.7-13.5-34.7-13.5c-73.1,13.4-83.4,34.5-84.7,107.8c-0.1,6-0.2,6.3-0.2,5.6c0,1.3,0,3.7,0,7.9c0,0,17.6,36.1,119.6,36.1
		c102,0,119.6-36.1,119.6-36.1c0-2.7,0-4.6,0-5.8C379.6,372.5,379.6,371.6,379.5,366.8L379.5,366.8z M379.5,366.8"/>
</g>
<g id="NETWORK_1_" class="st1">
	<path id="XMLID_224_" class="st8" d="M315.9,220.3v-15.8c0-3.3-1.5-6.5-4.1-8.6c-14.2-11.7-29.6-19.5-32.8-21
		c-0.3-0.2-0.6-0.5-0.6-0.9v-22.1c2.8-1.9,4.7-5.1,4.7-8.6v-23c0-11.4-9.3-20.7-20.7-20.7h-4.9c-11.4,0-20.7,9.3-20.7,20.7v23
		c0,3.6,1.9,6.8,4.7,8.6v22.2c0,0.4-0.2,0.7-0.6,0.9c-3.1,1.5-18.5,9.3-32.8,21c-2.6,2.1-4.1,5.3-4.1,8.6v15.8L315.9,220.3
		L315.9,220.3z M315.9,220.3"/>
	<path id="XMLID_221_" class="st8" d="M418.3,389.8c-14.2-11.7-29.6-19.5-32.8-21c-0.3-0.2-0.6-0.5-0.6-0.9v-22.2
		c2.8-1.9,4.7-5.1,4.7-8.6v-23c0-11.4-9.3-20.7-20.7-20.7h-4.9c-11.4,0-20.7,9.3-20.7,20.7v23c0,3.6,1.9,6.8,4.7,8.6v22.2
		c0,0.4-0.2,0.7-0.6,0.9c-3.1,1.5-18.5,9.3-32.8,21c-2.6,2.1-4.1,5.3-4.1,8.6v15.8h111.9v-15.8C422.3,395.1,420.9,391.9,418.3,389.8
		L418.3,389.8z M418.3,389.8"/>
	<path id="XMLID_218_" class="st8" d="M205.4,389.8c-14.2-11.7-29.6-19.5-32.8-21c-0.3-0.2-0.6-0.5-0.6-0.9v-22.2
		c2.8-1.9,4.7-5.1,4.7-8.6v-23c0-11.4-9.3-20.7-20.7-20.7H151c-11.4,0-20.7,9.3-20.7,20.7v23c0,3.6,1.9,6.8,4.7,8.6v22.2
		c0,0.4-0.2,0.7-0.6,0.9c-3.1,1.5-18.5,9.3-32.8,21c-2.6,2.1-4.1,5.3-4.1,8.6v15.8h111.9v-15.8C209.4,395.1,208,391.9,205.4,389.8
		L205.4,389.8z M205.4,389.8"/>
	<path id="XMLID_215_" class="st8" d="M260,259.8c-4.1,0-7.4,3.3-7.4,7.4s3.3,7.5,7.4,7.5c4.1,0,7.4-3.3,7.4-7.5
		C267.4,263.1,264.1,259.8,260,259.8L260,259.8z M260,259.8"/>
	<path id="XMLID_212_" class="st8" d="M267.4,289.1c0,4.1-3.3,7.4-7.4,7.4c-4.1,0-7.4-3.3-7.4-7.4c0-4.1,3.3-7.4,7.4-7.4
		C264.1,281.6,267.4,285,267.4,289.1L267.4,289.1z M267.4,289.1"/>
	<path id="XMLID_209_" class="st8" d="M267.4,310.9c0,4.1-3.3,7.4-7.4,7.4c-4.1,0-7.4-3.3-7.4-7.4c0-4.1,3.3-7.4,7.4-7.4
		C264.1,303.4,267.4,306.8,267.4,310.9L267.4,310.9z M267.4,310.9"/>
	<path id="XMLID_206_" class="st8" d="M260,237.9c-2,0-3.9,0.8-5.3,2.2c-1.4,1.4-2.2,3.3-2.2,5.3c0,2,0.8,3.9,2.2,5.3
		c1.4,1.4,3.3,2.2,5.3,2.2c2,0,3.9-0.8,5.3-2.2c1.4-1.4,2.2-3.3,2.2-5.3c0-2-0.8-3.9-2.2-5.3C263.9,238.7,262,237.9,260,237.9
		L260,237.9z M260,237.9"/>
	<path id="XMLID_203_" class="st8" d="M282.4,316.5c-3.5-2.3-8.1-1.3-10.3,2.3c-2.3,3.5-1.3,8.1,2.2,10.3c3.5,2.3,8.1,1.3,10.4-2.2
		C286.8,323.3,285.8,318.7,282.4,316.5L282.4,316.5z M282.4,316.5"/>
	<path id="XMLID_200_" class="st8" d="M304.1,334.6c0,4.1-3.3,7.4-7.4,7.4c-4.1,0-7.4-3.3-7.4-7.4c0-4.1,3.3-7.4,7.4-7.4
		C300.8,327.2,304.1,330.5,304.1,334.6L304.1,334.6z M304.1,334.6"/>
	<path id="XMLID_197_" class="st8" d="M322.4,346.4c0,4.1-3.3,7.4-7.4,7.4c-4.1,0-7.4-3.3-7.4-7.4s3.3-7.4,7.4-7.4
		C319.1,339,322.4,342.3,322.4,346.4L322.4,346.4z M322.4,346.4"/>
	<path id="XMLID_194_" class="st8" d="M237.6,316.5c-3.5,2.3-4.5,6.8-2.3,10.4c2.3,3.5,6.8,4.5,10.4,2.2c3.5-2.3,4.5-6.8,2.2-10.3
		C245.7,315.2,241,314.2,237.6,316.5L237.6,316.5z M237.6,316.5"/>
	<path id="XMLID_191_" class="st8" d="M230.7,334.6c0,4.1-3.3,7.4-7.4,7.4c-4.1,0-7.4-3.3-7.4-7.4c0-4.1,3.3-7.4,7.4-7.4
		C227.4,327.2,230.7,330.5,230.7,334.6L230.7,334.6z M230.7,334.6"/>
	<path id="XMLID_188_" class="st8" d="M212.4,346.4c0,4.1-3.3,7.4-7.4,7.4c-4.1,0-7.4-3.3-7.4-7.4s3.3-7.4,7.4-7.4
		C209,339,212.4,342.3,212.4,346.4L212.4,346.4z M212.4,346.4"/>
</g>
<g id="SETTINGS_1_" class="st1">
	<path id="XMLID_208_" class="st8" d="M247,199.5h11.9c1.9,9.5,5.6,18.2,10.7,25.9l-8.4,8.4c-3,3-3,7.9,0,10.9l9.1,9.1
		c3,3,7.9,3,10.9,0l8.4-8.4c7.7,5.2,16.5,8.9,25.9,10.7V268c0,4.3,3.5,7.7,7.7,7.7h12.9c4.3,0,7.7-3.5,7.7-7.7v-11.9
		c9.5-1.9,18.2-5.6,25.9-10.7l8.4,8.4c3,3,7.9,3,10.9,0l9.1-9.1c3-3,3-7.9,0-10.9l-8.4-8.4c5.2-7.7,8.9-16.5,10.7-25.9h11.9
		c4.3,0,7.7-3.5,7.7-7.7V179c0-4.3-3.5-7.7-7.7-7.7h-11.9c-1.9-9.5-5.6-18.2-10.7-25.9l8.4-8.4c3-3,3-7.9,0-10.9l-9.2-9.1
		c-3-3-7.9-3-10.9,0l-8.4,8.4c-7.7-5.2-16.5-8.9-25.9-10.7v-11.9c0-4.3-3.5-7.7-7.7-7.7h-12.9c-4.3,0-7.7,3.5-7.7,7.7v11.9
		c-9.5,1.9-18.2,5.6-25.9,10.7l-8.3-8.4c-3-3-7.9-3-10.9,0l-9.1,9.1c-3,3-3,7.9,0,10.9l8.4,8.4c-5.2,7.7-8.9,16.5-10.7,25.9H247
		c-4.3,0-7.7,3.5-7.7,7.7v12.9C239.3,196.1,242.7,199.5,247,199.5L247,199.5z M329.6,152.7c18.1,0,32.7,14.7,32.7,32.7
		c0,18.1-14.7,32.7-32.7,32.7s-32.7-14.7-32.7-32.7C296.8,167.4,311.5,152.7,329.6,152.7L329.6,152.7z M329.6,152.7"/>
	<path id="XMLID_204_" class="st8" d="M330,341.2c-0.9,2.3-3.6,3.4-5.9,2.5l-15.1-6.3c-2.7-1.1-5.7-0.2-7.3,2.2
		c-6.8,10.2-15.5,18.9-25.7,25.7c-2.4,1.6-3.3,4.7-2.2,7.3l6.2,15.1c0.9,2.3-0.1,4.9-2.5,5.9l-16.4,6.9c-2.3,0.9-4.9-0.1-5.9-2.5
		l-6.3-15.1c-1.1-2.7-3.9-4.2-6.7-3.6c-12,2.4-24.2,2.4-36.3,0c-2.8-0.5-5.7,0.9-6.7,3.6l-6.3,15.1c-0.9,2.3-3.6,3.4-5.9,2.5
		l-16.4-6.8c-1.1-0.5-2-1.3-2.5-2.5c-0.5-1.1-0.5-2.3,0-3.5l6.3-15.1c1.1-2.7,0.2-5.7-2.2-7.3c-10.2-6.8-18.9-15.5-25.7-25.7
		c-1.6-2.4-4.7-3.3-7.3-2.2l-15.1,6.3c-2.3,0.9-4.9-0.1-5.9-2.5l-6.8-16.4c-0.9-2.3,0.1-4.9,2.5-5.9l15.1-6.3
		c2.7-1.1,4.2-3.9,3.6-6.7c-2.4-12-2.4-24.2,0-36.3c0.5-2.8-0.9-5.7-3.6-6.7l-15.1-6.3c-1.1-0.5-2-1.3-2.5-2.5
		c-0.5-1.1-0.5-2.3,0-3.5l6.8-16.4c0.5-1.1,1.3-2,2.5-2.5c1.1-0.5,2.3-0.5,3.5,0l15.1,6.3c2.7,1.1,5.7,0.2,7.3-2.2
		c6.8-10.2,15.5-18.9,25.7-25.7c2.4-1.6,3.3-4.7,2.2-7.3l-6.3-15.1c-0.5-1.1-0.5-2.3,0-3.5c0.5-1.1,1.3-2,2.5-2.5l16.4-6.8
		c2.3-0.9,4.9,0.1,5.9,2.5l6.3,15.1c1.3,3.1,4.8,4.5,7.9,3.3c3.1-1.3,4.5-4.8,3.3-7.9l-6.3-15.1c-3.5-8.5-13.2-12.5-21.7-9
		l-16.4,6.8c-4.1,1.7-7.3,4.9-9,9c-1.7,4.1-1.7,8.6,0,12.7l4.4,10.6c-8.4,6.2-15.8,13.6-22.1,22.1l-10.6-4.4
		c-4.1-1.7-8.6-1.7-12.7,0c-4.1,1.7-7.3,4.9-9,9l-6.8,16.4c-1.7,4.1-1.7,8.6,0,12.7c1.7,4.1,4.9,7.3,9,9l10.6,4.4
		c-1.6,10.4-1.6,20.8,0,31.2l-10.6,4.4c-8.5,3.5-12.5,13.2-9,21.7l6.8,16.2c3.5,8.5,13.2,12.5,21.7,9l10.6-4.4
		c6.2,8.4,13.6,15.8,22.1,22.1l-4.4,10.6c-1.7,4.1-1.7,8.6,0,12.7c1.7,4.1,4.9,7.3,9,9l16.4,6.8c8.5,3.5,18.2-0.5,21.7-9l4.4-10.6
		c10.4,1.6,20.8,1.6,31.2,0l4.4,10.6c2.7,6.4,8.9,10.3,15.3,10.3c2.1,0,4.3-0.4,6.3-1.3l16.4-6.8c8.5-3.5,12.5-13.2,9-21.7
		l-4.4-10.6c8.4-6.2,15.8-13.6,22.1-22.1l10.6,4.4c8.5,3.5,18.2-0.5,21.7-9l6.8-16.4c1.7-4.1,1.7-8.6,0-12.7c-1.7-4.1-4.9-7.3-9-9
		l-15.1-6.3c-3.1-1.3-6.6,0.2-7.9,3.3c-1.3,3.1,0.2,6.6,3.3,7.9l15.1,6.3c1.1,0.5,2,1.3,2.5,2.5c0.5,1.1,0.5,2.3,0,3.5L330,341.2z
		 M330,341.2"/>
	<path id="XMLID_199_" class="st8" d="M223.9,246.6c3.3,0,6-2.7,6-6.1c0-3.3-2.7-6-6.1-6h-0.1c-14.3,0.1-27.6,5.7-37.6,15.9
		c-10,10.1-15.5,23.6-15.3,37.8c0.1,14.3,5.7,27.6,15.9,37.6c10.1,9.9,23.3,15.3,37.4,15.3h0.4c14.3-0.1,27.6-5.7,37.6-15.9
		c10-10.1,15.5-23.6,15.3-37.8c0-3.3-2.7-6-6.1-6h-0.1c-3.3,0-6,2.7-6,6.1c0.1,11-4.1,21.4-11.9,29.3c-7.7,7.9-18.1,12.2-29.1,12.3
		h-0.3c-10.9,0-21.2-4.2-28.9-11.9c-7.9-7.7-12.2-18.1-12.3-29.1c-0.1-11,4.1-21.4,11.9-29.3C202.6,251.1,212.9,246.7,223.9,246.6
		L223.9,246.6z M223.9,246.6"/>
</g>
<g id="SKILLS_1_" class="st1">
	<path id="XMLID_306_" class="st8" d="M407.7,134.9h-143V96.1H252v38.8H109c-3.5,0-6.4,2.8-6.4,6.4v129.3c0,3.5,2.8,6.4,6.4,6.4
		h298.7c3.5,0,6.4-2.8,6.4-6.4V141.3C414.1,137.8,411.2,134.9,407.7,134.9L407.7,134.9z M401.3,264.2H115.4V147.7h285.9V264.2z
		 M401.3,264.2"/>
	<path id="XMLID_303_" class="st8" d="M139.1,177.3h12.7c3.5,0,6.4-2.8,6.4-6.4c0-3.5-2.8-6.4-6.4-6.4h-12.7c-3.5,0-6.4,2.8-6.4,6.4
		C132.7,174.4,135.6,177.3,139.1,177.3L139.1,177.3z M139.1,177.3"/>
	<path id="XMLID_300_" class="st8" d="M176.7,177.3h12.7c3.5,0,6.4-2.8,6.4-6.4c0-3.5-2.8-6.4-6.4-6.4h-12.7c-3.5,0-6.4,2.8-6.4,6.4
		C170.4,174.4,173.2,177.3,176.7,177.3L176.7,177.3z M176.7,177.3"/>
	<path id="XMLID_297_" class="st8" d="M214.4,177.3h12.7c3.5,0,6.4-2.8,6.4-6.4c0-3.5-2.8-6.4-6.4-6.4h-12.7c-3.5,0-6.4,2.8-6.4,6.4
		C208,174.4,210.9,177.3,214.4,177.3L214.4,177.3z M214.4,177.3"/>
	<path id="XMLID_294_" class="st8" d="M252,177.3h12.7c3.5,0,6.4-2.8,6.4-6.4c0-3.5-2.8-6.4-6.4-6.4H252c-3.5,0-6.4,2.8-6.4,6.4
		C245.7,174.4,248.5,177.3,252,177.3L252,177.3z M252,177.3"/>
	<path id="XMLID_291_" class="st8" d="M289.7,177.3h12.7c3.5,0,6.4-2.8,6.4-6.4c0-3.5-2.8-6.4-6.4-6.4h-12.7c-3.5,0-6.4,2.8-6.4,6.4
		C283.3,174.4,286.2,177.3,289.7,177.3L289.7,177.3z M289.7,177.3"/>
	<path id="XMLID_288_" class="st8" d="M327.3,177.3H340c3.5,0,6.4-2.8,6.4-6.4c0-3.5-2.8-6.4-6.4-6.4h-12.7c-3.5,0-6.4,2.8-6.4,6.4
		C321,174.4,323.8,177.3,327.3,177.3L327.3,177.3z M327.3,177.3"/>
	<path id="XMLID_285_" class="st8" d="M365,177.3h12.7c3.5,0,6.4-2.8,6.4-6.4c0-3.5-2.8-6.4-6.4-6.4H365c-3.5,0-6.4,2.8-6.4,6.4
		C358.6,174.4,361.5,177.3,365,177.3L365,177.3z M365,177.3"/>
	<path id="XMLID_282_" class="st8" d="M139.1,212.3h12.7c3.5,0,6.4-2.8,6.4-6.4c0-3.5-2.8-6.4-6.4-6.4h-12.7c-3.5,0-6.4,2.8-6.4,6.4
		C132.7,209.5,135.6,212.3,139.1,212.3L139.1,212.3z M139.1,212.3"/>
	<path id="XMLID_279_" class="st8" d="M176.7,212.3h12.7c3.5,0,6.4-2.8,6.4-6.4c0-3.5-2.8-6.4-6.4-6.4h-12.7c-3.5,0-6.4,2.8-6.4,6.4
		C170.4,209.5,173.2,212.3,176.7,212.3L176.7,212.3z M176.7,212.3"/>
	<path id="XMLID_276_" class="st8" d="M214.4,212.3h12.7c3.5,0,6.4-2.8,6.4-6.4c0-3.5-2.8-6.4-6.4-6.4h-12.7c-3.5,0-6.4,2.8-6.4,6.4
		C208,209.5,210.9,212.3,214.4,212.3L214.4,212.3z M214.4,212.3"/>
	<path id="XMLID_273_" class="st8" d="M252,212.3h12.7c3.5,0,6.4-2.8,6.4-6.4c0-3.5-2.8-6.4-6.4-6.4H252c-3.5,0-6.4,2.8-6.4,6.4
		C245.7,209.5,248.5,212.3,252,212.3L252,212.3z M252,212.3"/>
	<path id="XMLID_270_" class="st8" d="M289.7,212.3h12.7c3.5,0,6.4-2.8,6.4-6.4c0-3.5-2.8-6.4-6.4-6.4h-12.7c-3.5,0-6.4,2.8-6.4,6.4
		C283.3,209.5,286.2,212.3,289.7,212.3L289.7,212.3z M289.7,212.3"/>
	<path id="XMLID_267_" class="st8" d="M327.3,212.3H340c3.5,0,6.4-2.8,6.4-6.4c0-3.5-2.8-6.4-6.4-6.4h-12.7c-3.5,0-6.4,2.8-6.4,6.4
		C321,209.5,323.8,212.3,327.3,212.3L327.3,212.3z M327.3,212.3"/>
	<path id="XMLID_264_" class="st8" d="M365,212.3h12.7c3.5,0,6.4-2.8,6.4-6.4c0-3.5-2.8-6.4-6.4-6.4H365c-3.5,0-6.4,2.8-6.4,6.4
		C358.6,209.5,361.5,212.3,365,212.3L365,212.3z M365,212.3"/>
	<path id="XMLID_261_" class="st8" d="M139.1,247.3h50.4c3.5,0,6.4-2.8,6.4-6.4c0-3.5-2.8-6.4-6.4-6.4h-50.4c-3.5,0-6.4,2.8-6.4,6.4
		C132.7,244.5,135.6,247.3,139.1,247.3L139.1,247.3z M139.1,247.3"/>
	<path id="XMLID_258_" class="st8" d="M214.4,247.3h88c3.5,0,6.4-2.8,6.4-6.4c0-3.5-2.8-6.4-6.4-6.4h-88c-3.5,0-6.4,2.8-6.4,6.4
		C208,244.5,210.9,247.3,214.4,247.3L214.4,247.3z M214.4,247.3"/>
	<path id="XMLID_254_" class="st8" d="M400,293h-56.1c-7.7,0-14,6.3-14,14v26.5c-0.4,0-0.9-0.1-1.3-0.1h-9c-7.7,0-14,6-14,13.4v47.8
		c0,7.4,6.3,13.4,14,13.4H400c7.7,0,14-6.3,14-14v-87.1C414.1,299.2,407.8,293,400,293L400,293z M401.3,394.1c0,0.7-0.6,1.3-1.3,1.3
		h-80.4c-0.9,0-1.3-0.5-1.3-0.7v-47.8c0-0.2,0.4-0.7,1.3-0.7h9c0.8,0,1.3,0.5,1.3,0.7v15.1c0,3.5,2.8,6.4,6.4,6.4s6.4-2.8,6.4-6.4
		v-55c0-0.7,0.6-1.3,1.3-1.3h9.4v21.9c0,3.5,2.8,6.4,6.4,6.4c3.5,0,6.4-2.8,6.4-6.4v-21.9h12v21.9c0,3.5,2.8,6.4,6.4,6.4
		c3.5,0,6.4-2.8,6.4-6.4v-21.9h9.4c0.7,0,1.3,0.6,1.3,1.3V394.1z M401.3,394.1"/>
	<path id="XMLID_250_" class="st8" d="M197.1,333.4h-9c-0.4,0-0.9,0-1.3,0.1v-26.5c0-7.7-6.3-14-14-14h-56.1c-7.7,0-14,6.3-14,14
		v87.1c0,7.7,6.3,14,14,14h80.4c7.7,0,14-6,14-13.4v-47.8C211.1,339.4,204.8,333.4,197.1,333.4L197.1,333.4z M174.1,361.9
		c0,3.5,2.8,6.4,6.4,6.4c3.5,0,6.4-2.8,6.4-6.4v-15.1c0-0.2,0.5-0.7,1.3-0.7h9c0.8,0,1.3,0.5,1.3,0.7v47.8c0,0.2-0.5,0.7-1.3,0.7
		h-80.4c-0.7,0-1.3-0.6-1.3-1.3v-87.1c0-0.7,0.6-1.3,1.3-1.3h9.4v21.9c0,3.5,2.8,6.4,6.4,6.4c3.5,0,6.4-2.8,6.4-6.4v-21.9h12v21.9
		c0,3.5,2.8,6.4,6.4,6.4c3.5,0,6.4-2.8,6.4-6.4v-21.9h9.4c0.7,0,1.3,0.6,1.3,1.3V361.9z M174.1,361.9"/>
</g>
<g id="VCD_1_" class="st1">
	<path id="XMLID_295_" class="st2" d="M405.4,149h-296c-2.4,0-4.4,2-4.4,4.4v201.7c0,2.4,2,4.4,4.4,4.4h296c2.4,0,4.4-2,4.4-4.4
		V153.4C409.8,151,407.8,149,405.4,149L405.4,149z M401,350.7H113.8V157.8H401V350.7z M401,350.7"/>
	<path id="XMLID_284_" class="st2" d="M127.4,331.6h260.1c2.4,0,4.4-2,4.4-4.4V170.1c0-2.4-2-4.4-4.4-4.4H127.4
		c-2.4,0-4.4,2-4.4,4.4v157.1C123,329.6,124.9,331.6,127.4,331.6L127.4,331.6z M257.4,268.4c-18.3,0-33.3-14.9-33.3-33.3
		c0-18.3,14.9-33.3,33.3-33.3c18.3,0,33.3,14.9,33.3,33.3C290.7,253.5,275.7,268.4,257.4,268.4L257.4,268.4z M257.4,277.2
		c13.4,0,25.3-6.3,33.1-16.1c7.9,0.4,14.3,7,14.3,15v46.6h-42.9v-5.1c6.4-1.9,11-7.8,11-14.8c0-8.5-6.9-15.5-15.5-15.5
		c-8.5,0-15.5,6.9-15.5,15.5c0,7,4.7,12.9,11,14.8v5.1h-42.9v-46.6c0-8,6.3-14.6,14.3-15C232,270.9,244,277.2,257.4,277.2
		L257.4,277.2z M257.4,309.5c-3.7,0-6.6-3-6.6-6.6c0-3.7,3-6.6,6.6-6.6c3.7,0,6.6,3,6.6,6.6C264,306.5,261.1,309.5,257.4,309.5
		L257.4,309.5z M131.8,174.5H383v148.3h-69.5v-46.6c0-11.2-7.7-20.6-18.1-23.2c2.6-5.4,4-11.5,4-17.9c0-23.2-18.9-42.1-42.1-42.1
		c-23.2,0-42.1,18.9-42.1,42.1c0,6.4,1.4,12.4,4,17.9c-10.4,2.6-18,12-18,23.2v46.6h-69.5V174.5z M131.8,174.5"/>
	<rect id="XMLID_260_" x="235.8" y="236.2" class="st2" width="13.1" height="8.8"/>
	<rect id="XMLID_257_" x="265.9" y="236.2" class="st2" width="13.1" height="8.8"/>
	<rect id="XMLID_256_" x="371.1" y="336.9" class="st2" width="16.5" height="8.8"/>
</g>
<g id="XMLID_278_" class="st1">
	<path id="XMLID_290_" class="st8" d="M261.3,172.3c-7.7,0-14,12.5-14,27.9c0,15.4,6.3,27.9,14,27.9c7.7,0,14-12.5,14-27.9
		C275.3,184.8,269,172.3,261.3,172.3L261.3,172.3z M261.3,172.3"/>
	<path id="XMLID_286_" class="st8" d="M214.7,133.8c28.2,0,39.6,2.1,39.6,23.2h14c0-37.2-31-37.2-53.6-37.2
		c-28.1,0-39.6-2-39.6-23.2h-14C161.1,133.8,192.1,133.8,214.7,133.8L214.7,133.8z M214.7,133.8"/>
	<path id="XMLID_280_" class="st8" d="M287.1,157c1.3,4,2.1,8.4,2.1,12.9v60.7c0,17-9.9,31.2-22.9,34.2c0,0.2,0.1,0.4,0.1,0.7v48.8
		c0,2.8-2.3,5.1-5.2,5.1c-2.8,0-5.2-2.3-5.2-5.1v-48.8c0-0.3,0.1-0.4,0.2-0.7c-13-3-22.9-17.2-22.9-34.2v-60.7
		c0-4.6,0.7-8.9,2.1-12.9c-38.5,10.1-67.3,45-67.3,86.6v80.9c0,49.5,40.5,90,90,90h6.4c49.5,0,90-40.5,90-90v-80.9
		C354.4,202,325.6,167.1,287.1,157L287.1,157z M287.1,157"/>
</g>
<g id="XMLID_298_">
	<g id="VCD" class="st1">
		<path id="XMLID_263_" class="st2" d="M108.7,289.7h99.6v9.2h-25.2c-2.9,0-5.2,2.3-5.2,5.2c0,2.9,2.3,5.2,5.2,5.2h149.4
			c2.9,0,5.2-2.3,5.2-5.2c0-2.8-2.3-5.2-5.2-5.2h-25.2v-9.2h43l-0.2,8.7c-0.1,2.8,2.1,6.1,5,6.6c7.5,1.3,17.1,11.7,21.6,17.2
			c-9.3,3-16.1,29.3-16.1,40.2c0,13.3,10,20.6,22.4,20.6c12.4,0,22.5-7.3,22.5-20.6c0-8.9-3.2-33.7-16.9-38.1
			c-6.2-11.6-16.1-28.5-24.8-31.3c0-1.1,0-2.2,0.1-3.3h42.8c5.8,0,10.5-4.7,10.5-10.5V123c0-5.8-4.7-10.5-10.5-10.5H108.7
			c-5.8,0-10.5,4.7-10.5,10.5v156.1C98.1,285,102.9,289.7,108.7,289.7L108.7,289.7z M113.3,136.2c0-4.8,4.3-8.8,9.5-8.8h269.9
			c5.2,0,9.5,3.9,9.5,8.8V266c0,4.8-4.3,8.8-9.5,8.8H122.8c-5.3,0-9.5-3.9-9.5-8.8V136.2z M113.3,136.2"/>
		<path id="XMLID_259_" class="st2" d="M346,386.5l-10.3-50.4c0-5.7-4.6-10.3-10.3-10.3H131.9c-5.7,0-10.3,4.6-10.3,10.3l-6.9,50.4
			c0,5.7,4.6,10.3,10.3,10.3h210.7C341.4,396.8,346,392.2,346,386.5L346,386.5z M346,386.5"/>
	</g>
	<rect id="XMLID_277_" x="152" y="168.3" class="st9" width="211.7" height="81.6"/>
	<text id="XMLID_296_" transform="matrix(1 0 0 1 222.1463 182.52)" class="st1"><tspan x="0" y="0" class="st2 st10 st11">VIRTUAL </tspan><tspan x="-1.1" y="24" class="st2 st10 st11">CAMPUS </tspan><tspan x="10.7" y="48" class="st2 st10 st11">DRIVE</tspan></text>
</g>
<g id="vcd" class="st1">
	<path id="XMLID_339_" class="st2" d="M298.5,140.1H220c-6.8,0-12.3,5.5-12.3,12.3v98.2c0,6.8,5.5,12.3,12.3,12.3h78.5
		c6.8,0,12.3-5.5,12.3-12.3v-98.2C310.8,145.6,305.3,140.1,298.5,140.1L298.5,140.1z M305.9,250.5c0,4.1-3.3,7.4-7.4,7.4H220
		c-4.1,0-7.4-3.3-7.4-7.4v-98.2c0-4.1,3.3-7.4,7.4-7.4h78.5c4.1,0,7.4,3.3,7.4,7.4V250.5z M305.9,250.5"/>
	<path id="XMLID_336_" class="st2" d="M285.1,193.7h-51.8c-1.2,0-2.3,1-2.3,2.3c0,1.2,1,2.3,2.3,2.3h51.8c1.2,0,2.2-1,2.2-2.3
		C287.4,194.7,286.4,193.7,285.1,193.7L285.1,193.7z M285.1,193.7"/>
	<path id="XMLID_333_" class="st2" d="M285.1,204h-51.8c-1.2,0-2.3,1-2.3,2.3c0,1.2,1,2.2,2.3,2.2h51.8c1.2,0,2.2-1,2.2-2.2
		C287.4,205,286.4,204,285.1,204L285.1,204z M285.1,204"/>
	<path id="XMLID_330_" class="st2" d="M285.1,214.3h-51.8c-1.2,0-2.3,1-2.3,2.3c0,1.2,1,2.3,2.3,2.3h51.8c1.2,0,2.2-1,2.2-2.3
		C287.4,215.3,286.4,214.3,285.1,214.3L285.1,214.3z M285.1,214.3"/>
	<path id="XMLID_327_" class="st2" d="M285.1,224.5h-25.9c-1.2,0-2.2,1-2.2,2.2c0,1.3,1,2.3,2.2,2.3h25.9c1.2,0,2.2-1,2.2-2.3
		C287.4,225.5,286.4,224.5,285.1,224.5L285.1,224.5z M285.1,224.5"/>
	<path id="XMLID_324_" class="st2" d="M285.1,244.8H267c-1.2,0-2.3,1-2.3,2.3c0,1.2,1,2.2,2.3,2.2h18.1c1.2,0,2.2-1,2.2-2.2
		C287.4,245.8,286.4,244.8,285.1,244.8L285.1,244.8z M285.1,244.8"/>
	<path id="XMLID_320_" class="st2" d="M261.8,183.8c0-4.3-4.9-10-11.5-11.7c2.8-1.9,4.7-5.5,4.7-8.9c0-4.7-3.8-8.4-8.4-8.4
		c-4.7,0-8.5,3.8-8.5,8.4c0,3.3,1.9,7,4.7,8.9c-6.6,1.7-11.5,7.5-11.5,11.7C231.1,188.8,261.8,188.8,261.8,183.8L261.8,183.8z
		 M245.8,174.6L245.8,174.6l-1.4-1.6c0.7,0.2,1.4,0.4,2.1,0.4c0.7,0,1.4-0.1,2.1-0.4l-1.4,1.6h0l3.6,8.7l-4.3,4.3l-4.3-4.3
		L245.8,174.6z M245.8,174.6"/>
</g>
</svg>
